G04 #@! TF.GenerationSoftware,KiCad,Pcbnew,(7.0.0)*
G04 #@! TF.CreationDate,2023-09-09T07:47:01+09:00*
G04 #@! TF.ProjectId,MEZ68HC11,4d455a36-3848-4433-9131-2e6b69636164,rev?*
G04 #@! TF.SameCoordinates,PX55d4a80PY9043270*
G04 #@! TF.FileFunction,Legend,Top*
G04 #@! TF.FilePolarity,Positive*
%FSLAX46Y46*%
G04 Gerber Fmt 4.6, Leading zero omitted, Abs format (unit mm)*
G04 Created by KiCad (PCBNEW (7.0.0)) date 2023-09-09 07:47:01*
%MOMM*%
%LPD*%
G01*
G04 APERTURE LIST*
%ADD10C,0.150000*%
%ADD11C,0.200000*%
%ADD12C,0.300000*%
%ADD13C,0.250000*%
%ADD14C,0.120000*%
%ADD15C,0.100000*%
G04 APERTURE END LIST*
D10*
X44171961Y24016000D02*
G75*
G03*
X44171961Y24016000I-567961J0D01*
G01*
X43858000Y24016000D02*
G75*
G03*
X43858000Y24016000I-254000J0D01*
G01*
X44366000Y24016000D02*
G75*
G03*
X44366000Y24016000I-762000J0D01*
G01*
D11*
X27340857Y55797715D02*
X26140857Y55797715D01*
X26140857Y55797715D02*
X26140857Y56254858D01*
X26140857Y56254858D02*
X26198000Y56369143D01*
X26198000Y56369143D02*
X26255142Y56426286D01*
X26255142Y56426286D02*
X26369428Y56483429D01*
X26369428Y56483429D02*
X26540857Y56483429D01*
X26540857Y56483429D02*
X26655142Y56426286D01*
X26655142Y56426286D02*
X26712285Y56369143D01*
X26712285Y56369143D02*
X26769428Y56254858D01*
X26769428Y56254858D02*
X26769428Y55797715D01*
X26998000Y56940572D02*
X26998000Y57512000D01*
X27340857Y56826286D02*
X26140857Y57226286D01*
X26140857Y57226286D02*
X27340857Y57626286D01*
X26140857Y57912000D02*
X26140857Y58712000D01*
X26140857Y58712000D02*
X27340857Y58197714D01*
D12*
X61098571Y25866429D02*
X61098571Y27366429D01*
X61098571Y27366429D02*
X61455714Y27366429D01*
X61455714Y27366429D02*
X61670000Y27295000D01*
X61670000Y27295000D02*
X61812857Y27152143D01*
X61812857Y27152143D02*
X61884286Y27009286D01*
X61884286Y27009286D02*
X61955714Y26723572D01*
X61955714Y26723572D02*
X61955714Y26509286D01*
X61955714Y26509286D02*
X61884286Y26223572D01*
X61884286Y26223572D02*
X61812857Y26080715D01*
X61812857Y26080715D02*
X61670000Y25937858D01*
X61670000Y25937858D02*
X61455714Y25866429D01*
X61455714Y25866429D02*
X61098571Y25866429D01*
X62455714Y27366429D02*
X63455714Y27366429D01*
X63455714Y27366429D02*
X62812857Y25866429D01*
X89927142Y19032143D02*
X90141428Y18960715D01*
X90141428Y18960715D02*
X90212857Y18889286D01*
X90212857Y18889286D02*
X90284285Y18746429D01*
X90284285Y18746429D02*
X90284285Y18532143D01*
X90284285Y18532143D02*
X90212857Y18389286D01*
X90212857Y18389286D02*
X90141428Y18317858D01*
X90141428Y18317858D02*
X89998571Y18246429D01*
X89998571Y18246429D02*
X89427142Y18246429D01*
X89427142Y18246429D02*
X89427142Y19746429D01*
X89427142Y19746429D02*
X89927142Y19746429D01*
X89927142Y19746429D02*
X90070000Y19675000D01*
X90070000Y19675000D02*
X90141428Y19603572D01*
X90141428Y19603572D02*
X90212857Y19460715D01*
X90212857Y19460715D02*
X90212857Y19317858D01*
X90212857Y19317858D02*
X90141428Y19175000D01*
X90141428Y19175000D02*
X90070000Y19103572D01*
X90070000Y19103572D02*
X89927142Y19032143D01*
X89927142Y19032143D02*
X89427142Y19032143D01*
X90927142Y19746429D02*
X90927142Y18532143D01*
X90927142Y18532143D02*
X90998571Y18389286D01*
X90998571Y18389286D02*
X91070000Y18317858D01*
X91070000Y18317858D02*
X91212857Y18246429D01*
X91212857Y18246429D02*
X91498571Y18246429D01*
X91498571Y18246429D02*
X91641428Y18317858D01*
X91641428Y18317858D02*
X91712857Y18389286D01*
X91712857Y18389286D02*
X91784285Y18532143D01*
X91784285Y18532143D02*
X91784285Y19746429D01*
X92427143Y18317858D02*
X92641429Y18246429D01*
X92641429Y18246429D02*
X92998571Y18246429D01*
X92998571Y18246429D02*
X93141429Y18317858D01*
X93141429Y18317858D02*
X93212857Y18389286D01*
X93212857Y18389286D02*
X93284286Y18532143D01*
X93284286Y18532143D02*
X93284286Y18675000D01*
X93284286Y18675000D02*
X93212857Y18817858D01*
X93212857Y18817858D02*
X93141429Y18889286D01*
X93141429Y18889286D02*
X92998571Y18960715D01*
X92998571Y18960715D02*
X92712857Y19032143D01*
X92712857Y19032143D02*
X92570000Y19103572D01*
X92570000Y19103572D02*
X92498571Y19175000D01*
X92498571Y19175000D02*
X92427143Y19317858D01*
X92427143Y19317858D02*
X92427143Y19460715D01*
X92427143Y19460715D02*
X92498571Y19603572D01*
X92498571Y19603572D02*
X92570000Y19675000D01*
X92570000Y19675000D02*
X92712857Y19746429D01*
X92712857Y19746429D02*
X93070000Y19746429D01*
X93070000Y19746429D02*
X93284286Y19675000D01*
X94784285Y18246429D02*
X94284285Y18960715D01*
X93927142Y18246429D02*
X93927142Y19746429D01*
X93927142Y19746429D02*
X94498571Y19746429D01*
X94498571Y19746429D02*
X94641428Y19675000D01*
X94641428Y19675000D02*
X94712857Y19603572D01*
X94712857Y19603572D02*
X94784285Y19460715D01*
X94784285Y19460715D02*
X94784285Y19246429D01*
X94784285Y19246429D02*
X94712857Y19103572D01*
X94712857Y19103572D02*
X94641428Y19032143D01*
X94641428Y19032143D02*
X94498571Y18960715D01*
X94498571Y18960715D02*
X93927142Y18960715D01*
X96427142Y18103572D02*
X96284285Y18175000D01*
X96284285Y18175000D02*
X96141428Y18317858D01*
X96141428Y18317858D02*
X95927142Y18532143D01*
X95927142Y18532143D02*
X95784285Y18603572D01*
X95784285Y18603572D02*
X95641428Y18603572D01*
X95712857Y18246429D02*
X95570000Y18317858D01*
X95570000Y18317858D02*
X95427142Y18460715D01*
X95427142Y18460715D02*
X95355714Y18746429D01*
X95355714Y18746429D02*
X95355714Y19246429D01*
X95355714Y19246429D02*
X95427142Y19532143D01*
X95427142Y19532143D02*
X95570000Y19675000D01*
X95570000Y19675000D02*
X95712857Y19746429D01*
X95712857Y19746429D02*
X95998571Y19746429D01*
X95998571Y19746429D02*
X96141428Y19675000D01*
X96141428Y19675000D02*
X96284285Y19532143D01*
X96284285Y19532143D02*
X96355714Y19246429D01*
X96355714Y19246429D02*
X96355714Y18746429D01*
X96355714Y18746429D02*
X96284285Y18460715D01*
X96284285Y18460715D02*
X96141428Y18317858D01*
X96141428Y18317858D02*
X95998571Y18246429D01*
X95998571Y18246429D02*
X95712857Y18246429D01*
X89220000Y20275000D02*
X96491429Y20275000D01*
X59812858Y51695000D02*
X60527144Y51695000D01*
X59670001Y51266429D02*
X60170001Y52766429D01*
X60170001Y52766429D02*
X60670001Y51266429D01*
X61955715Y51266429D02*
X61098572Y51266429D01*
X61527143Y51266429D02*
X61527143Y52766429D01*
X61527143Y52766429D02*
X61384286Y52552143D01*
X61384286Y52552143D02*
X61241429Y52409286D01*
X61241429Y52409286D02*
X61098572Y52337858D01*
X62455714Y52766429D02*
X63384286Y52766429D01*
X63384286Y52766429D02*
X62884286Y52195000D01*
X62884286Y52195000D02*
X63098571Y52195000D01*
X63098571Y52195000D02*
X63241429Y52123572D01*
X63241429Y52123572D02*
X63312857Y52052143D01*
X63312857Y52052143D02*
X63384286Y51909286D01*
X63384286Y51909286D02*
X63384286Y51552143D01*
X63384286Y51552143D02*
X63312857Y51409286D01*
X63312857Y51409286D02*
X63241429Y51337858D01*
X63241429Y51337858D02*
X63098571Y51266429D01*
X63098571Y51266429D02*
X62670000Y51266429D01*
X62670000Y51266429D02*
X62527143Y51337858D01*
X62527143Y51337858D02*
X62455714Y51409286D01*
D10*
X11089523Y2982620D02*
X11089523Y3982620D01*
X11089523Y3982620D02*
X11422856Y3268334D01*
X11422856Y3268334D02*
X11756189Y3982620D01*
X11756189Y3982620D02*
X11756189Y2982620D01*
X12232380Y3506429D02*
X12565713Y3506429D01*
X12708570Y2982620D02*
X12232380Y2982620D01*
X12232380Y2982620D02*
X12232380Y3982620D01*
X12232380Y3982620D02*
X12708570Y3982620D01*
X13041904Y3982620D02*
X13708570Y3982620D01*
X13708570Y3982620D02*
X13041904Y2982620D01*
X13041904Y2982620D02*
X13708570Y2982620D01*
X14518094Y3982620D02*
X14327618Y3982620D01*
X14327618Y3982620D02*
X14232380Y3935000D01*
X14232380Y3935000D02*
X14184761Y3887381D01*
X14184761Y3887381D02*
X14089523Y3744524D01*
X14089523Y3744524D02*
X14041904Y3554048D01*
X14041904Y3554048D02*
X14041904Y3173096D01*
X14041904Y3173096D02*
X14089523Y3077858D01*
X14089523Y3077858D02*
X14137142Y3030239D01*
X14137142Y3030239D02*
X14232380Y2982620D01*
X14232380Y2982620D02*
X14422856Y2982620D01*
X14422856Y2982620D02*
X14518094Y3030239D01*
X14518094Y3030239D02*
X14565713Y3077858D01*
X14565713Y3077858D02*
X14613332Y3173096D01*
X14613332Y3173096D02*
X14613332Y3411191D01*
X14613332Y3411191D02*
X14565713Y3506429D01*
X14565713Y3506429D02*
X14518094Y3554048D01*
X14518094Y3554048D02*
X14422856Y3601667D01*
X14422856Y3601667D02*
X14232380Y3601667D01*
X14232380Y3601667D02*
X14137142Y3554048D01*
X14137142Y3554048D02*
X14089523Y3506429D01*
X14089523Y3506429D02*
X14041904Y3411191D01*
X15184761Y3554048D02*
X15089523Y3601667D01*
X15089523Y3601667D02*
X15041904Y3649286D01*
X15041904Y3649286D02*
X14994285Y3744524D01*
X14994285Y3744524D02*
X14994285Y3792143D01*
X14994285Y3792143D02*
X15041904Y3887381D01*
X15041904Y3887381D02*
X15089523Y3935000D01*
X15089523Y3935000D02*
X15184761Y3982620D01*
X15184761Y3982620D02*
X15375237Y3982620D01*
X15375237Y3982620D02*
X15470475Y3935000D01*
X15470475Y3935000D02*
X15518094Y3887381D01*
X15518094Y3887381D02*
X15565713Y3792143D01*
X15565713Y3792143D02*
X15565713Y3744524D01*
X15565713Y3744524D02*
X15518094Y3649286D01*
X15518094Y3649286D02*
X15470475Y3601667D01*
X15470475Y3601667D02*
X15375237Y3554048D01*
X15375237Y3554048D02*
X15184761Y3554048D01*
X15184761Y3554048D02*
X15089523Y3506429D01*
X15089523Y3506429D02*
X15041904Y3458810D01*
X15041904Y3458810D02*
X14994285Y3363572D01*
X14994285Y3363572D02*
X14994285Y3173096D01*
X14994285Y3173096D02*
X15041904Y3077858D01*
X15041904Y3077858D02*
X15089523Y3030239D01*
X15089523Y3030239D02*
X15184761Y2982620D01*
X15184761Y2982620D02*
X15375237Y2982620D01*
X15375237Y2982620D02*
X15470475Y3030239D01*
X15470475Y3030239D02*
X15518094Y3077858D01*
X15518094Y3077858D02*
X15565713Y3173096D01*
X15565713Y3173096D02*
X15565713Y3363572D01*
X15565713Y3363572D02*
X15518094Y3458810D01*
X15518094Y3458810D02*
X15470475Y3506429D01*
X15470475Y3506429D02*
X15375237Y3554048D01*
X15994285Y2982620D02*
X15994285Y3982620D01*
X15994285Y3506429D02*
X16565713Y3506429D01*
X16565713Y2982620D02*
X16565713Y3982620D01*
X17613332Y3077858D02*
X17565713Y3030239D01*
X17565713Y3030239D02*
X17422856Y2982620D01*
X17422856Y2982620D02*
X17327618Y2982620D01*
X17327618Y2982620D02*
X17184761Y3030239D01*
X17184761Y3030239D02*
X17089523Y3125477D01*
X17089523Y3125477D02*
X17041904Y3220715D01*
X17041904Y3220715D02*
X16994285Y3411191D01*
X16994285Y3411191D02*
X16994285Y3554048D01*
X16994285Y3554048D02*
X17041904Y3744524D01*
X17041904Y3744524D02*
X17089523Y3839762D01*
X17089523Y3839762D02*
X17184761Y3935000D01*
X17184761Y3935000D02*
X17327618Y3982620D01*
X17327618Y3982620D02*
X17422856Y3982620D01*
X17422856Y3982620D02*
X17565713Y3935000D01*
X17565713Y3935000D02*
X17613332Y3887381D01*
X18565713Y2982620D02*
X17994285Y2982620D01*
X18279999Y2982620D02*
X18279999Y3982620D01*
X18279999Y3982620D02*
X18184761Y3839762D01*
X18184761Y3839762D02*
X18089523Y3744524D01*
X18089523Y3744524D02*
X17994285Y3696905D01*
X19518094Y2982620D02*
X18946666Y2982620D01*
X19232380Y2982620D02*
X19232380Y3982620D01*
X19232380Y3982620D02*
X19137142Y3839762D01*
X19137142Y3839762D02*
X19041904Y3744524D01*
X19041904Y3744524D02*
X18946666Y3696905D01*
X19708571Y2887381D02*
X20470475Y2887381D01*
X20708571Y2982620D02*
X20708571Y3982620D01*
X20708571Y3601667D02*
X20803809Y3649286D01*
X20803809Y3649286D02*
X20994285Y3649286D01*
X20994285Y3649286D02*
X21089523Y3601667D01*
X21089523Y3601667D02*
X21137142Y3554048D01*
X21137142Y3554048D02*
X21184761Y3458810D01*
X21184761Y3458810D02*
X21184761Y3173096D01*
X21184761Y3173096D02*
X21137142Y3077858D01*
X21137142Y3077858D02*
X21089523Y3030239D01*
X21089523Y3030239D02*
X20994285Y2982620D01*
X20994285Y2982620D02*
X20803809Y2982620D01*
X20803809Y2982620D02*
X20708571Y3030239D01*
X21756190Y2982620D02*
X21660952Y3030239D01*
X21660952Y3030239D02*
X21613333Y3077858D01*
X21613333Y3077858D02*
X21565714Y3173096D01*
X21565714Y3173096D02*
X21565714Y3458810D01*
X21565714Y3458810D02*
X21613333Y3554048D01*
X21613333Y3554048D02*
X21660952Y3601667D01*
X21660952Y3601667D02*
X21756190Y3649286D01*
X21756190Y3649286D02*
X21899047Y3649286D01*
X21899047Y3649286D02*
X21994285Y3601667D01*
X21994285Y3601667D02*
X22041904Y3554048D01*
X22041904Y3554048D02*
X22089523Y3458810D01*
X22089523Y3458810D02*
X22089523Y3173096D01*
X22089523Y3173096D02*
X22041904Y3077858D01*
X22041904Y3077858D02*
X21994285Y3030239D01*
X21994285Y3030239D02*
X21899047Y2982620D01*
X21899047Y2982620D02*
X21756190Y2982620D01*
X22946666Y2982620D02*
X22946666Y3506429D01*
X22946666Y3506429D02*
X22899047Y3601667D01*
X22899047Y3601667D02*
X22803809Y3649286D01*
X22803809Y3649286D02*
X22613333Y3649286D01*
X22613333Y3649286D02*
X22518095Y3601667D01*
X22946666Y3030239D02*
X22851428Y2982620D01*
X22851428Y2982620D02*
X22613333Y2982620D01*
X22613333Y2982620D02*
X22518095Y3030239D01*
X22518095Y3030239D02*
X22470476Y3125477D01*
X22470476Y3125477D02*
X22470476Y3220715D01*
X22470476Y3220715D02*
X22518095Y3315953D01*
X22518095Y3315953D02*
X22613333Y3363572D01*
X22613333Y3363572D02*
X22851428Y3363572D01*
X22851428Y3363572D02*
X22946666Y3411191D01*
X23422857Y2982620D02*
X23422857Y3649286D01*
X23422857Y3458810D02*
X23470476Y3554048D01*
X23470476Y3554048D02*
X23518095Y3601667D01*
X23518095Y3601667D02*
X23613333Y3649286D01*
X23613333Y3649286D02*
X23708571Y3649286D01*
X24470476Y2982620D02*
X24470476Y3982620D01*
X24470476Y3030239D02*
X24375238Y2982620D01*
X24375238Y2982620D02*
X24184762Y2982620D01*
X24184762Y2982620D02*
X24089524Y3030239D01*
X24089524Y3030239D02*
X24041905Y3077858D01*
X24041905Y3077858D02*
X23994286Y3173096D01*
X23994286Y3173096D02*
X23994286Y3458810D01*
X23994286Y3458810D02*
X24041905Y3554048D01*
X24041905Y3554048D02*
X24089524Y3601667D01*
X24089524Y3601667D02*
X24184762Y3649286D01*
X24184762Y3649286D02*
X24375238Y3649286D01*
X24375238Y3649286D02*
X24470476Y3601667D01*
X10118095Y981667D02*
X10070476Y1029286D01*
X10070476Y1029286D02*
X9975238Y1172143D01*
X9975238Y1172143D02*
X9927619Y1267381D01*
X9927619Y1267381D02*
X9880000Y1410239D01*
X9880000Y1410239D02*
X9832381Y1648334D01*
X9832381Y1648334D02*
X9832381Y1838810D01*
X9832381Y1838810D02*
X9880000Y2076905D01*
X9880000Y2076905D02*
X9927619Y2219762D01*
X9927619Y2219762D02*
X9975238Y2315000D01*
X9975238Y2315000D02*
X10070476Y2457858D01*
X10070476Y2457858D02*
X10118095Y2505477D01*
X11070476Y1457858D02*
X11022857Y1410239D01*
X11022857Y1410239D02*
X10880000Y1362620D01*
X10880000Y1362620D02*
X10784762Y1362620D01*
X10784762Y1362620D02*
X10641905Y1410239D01*
X10641905Y1410239D02*
X10546667Y1505477D01*
X10546667Y1505477D02*
X10499048Y1600715D01*
X10499048Y1600715D02*
X10451429Y1791191D01*
X10451429Y1791191D02*
X10451429Y1934048D01*
X10451429Y1934048D02*
X10499048Y2124524D01*
X10499048Y2124524D02*
X10546667Y2219762D01*
X10546667Y2219762D02*
X10641905Y2315000D01*
X10641905Y2315000D02*
X10784762Y2362620D01*
X10784762Y2362620D02*
X10880000Y2362620D01*
X10880000Y2362620D02*
X11022857Y2315000D01*
X11022857Y2315000D02*
X11070476Y2267381D01*
X11403810Y981667D02*
X11451429Y1029286D01*
X11451429Y1029286D02*
X11546667Y1172143D01*
X11546667Y1172143D02*
X11594286Y1267381D01*
X11594286Y1267381D02*
X11641905Y1410239D01*
X11641905Y1410239D02*
X11689524Y1648334D01*
X11689524Y1648334D02*
X11689524Y1838810D01*
X11689524Y1838810D02*
X11641905Y2076905D01*
X11641905Y2076905D02*
X11594286Y2219762D01*
X11594286Y2219762D02*
X11546667Y2315000D01*
X11546667Y2315000D02*
X11451429Y2457858D01*
X11451429Y2457858D02*
X11403810Y2505477D01*
X12718096Y2267381D02*
X12765715Y2315000D01*
X12765715Y2315000D02*
X12860953Y2362620D01*
X12860953Y2362620D02*
X13099048Y2362620D01*
X13099048Y2362620D02*
X13194286Y2315000D01*
X13194286Y2315000D02*
X13241905Y2267381D01*
X13241905Y2267381D02*
X13289524Y2172143D01*
X13289524Y2172143D02*
X13289524Y2076905D01*
X13289524Y2076905D02*
X13241905Y1934048D01*
X13241905Y1934048D02*
X12670477Y1362620D01*
X12670477Y1362620D02*
X13289524Y1362620D01*
X13908572Y2362620D02*
X14003810Y2362620D01*
X14003810Y2362620D02*
X14099048Y2315000D01*
X14099048Y2315000D02*
X14146667Y2267381D01*
X14146667Y2267381D02*
X14194286Y2172143D01*
X14194286Y2172143D02*
X14241905Y1981667D01*
X14241905Y1981667D02*
X14241905Y1743572D01*
X14241905Y1743572D02*
X14194286Y1553096D01*
X14194286Y1553096D02*
X14146667Y1457858D01*
X14146667Y1457858D02*
X14099048Y1410239D01*
X14099048Y1410239D02*
X14003810Y1362620D01*
X14003810Y1362620D02*
X13908572Y1362620D01*
X13908572Y1362620D02*
X13813334Y1410239D01*
X13813334Y1410239D02*
X13765715Y1457858D01*
X13765715Y1457858D02*
X13718096Y1553096D01*
X13718096Y1553096D02*
X13670477Y1743572D01*
X13670477Y1743572D02*
X13670477Y1981667D01*
X13670477Y1981667D02*
X13718096Y2172143D01*
X13718096Y2172143D02*
X13765715Y2267381D01*
X13765715Y2267381D02*
X13813334Y2315000D01*
X13813334Y2315000D02*
X13908572Y2362620D01*
X14622858Y2267381D02*
X14670477Y2315000D01*
X14670477Y2315000D02*
X14765715Y2362620D01*
X14765715Y2362620D02*
X15003810Y2362620D01*
X15003810Y2362620D02*
X15099048Y2315000D01*
X15099048Y2315000D02*
X15146667Y2267381D01*
X15146667Y2267381D02*
X15194286Y2172143D01*
X15194286Y2172143D02*
X15194286Y2076905D01*
X15194286Y2076905D02*
X15146667Y1934048D01*
X15146667Y1934048D02*
X14575239Y1362620D01*
X14575239Y1362620D02*
X15194286Y1362620D01*
X15527620Y2362620D02*
X16146667Y2362620D01*
X16146667Y2362620D02*
X15813334Y1981667D01*
X15813334Y1981667D02*
X15956191Y1981667D01*
X15956191Y1981667D02*
X16051429Y1934048D01*
X16051429Y1934048D02*
X16099048Y1886429D01*
X16099048Y1886429D02*
X16146667Y1791191D01*
X16146667Y1791191D02*
X16146667Y1553096D01*
X16146667Y1553096D02*
X16099048Y1457858D01*
X16099048Y1457858D02*
X16051429Y1410239D01*
X16051429Y1410239D02*
X15956191Y1362620D01*
X15956191Y1362620D02*
X15670477Y1362620D01*
X15670477Y1362620D02*
X15575239Y1410239D01*
X15575239Y1410239D02*
X15527620Y1457858D01*
X16622858Y1410239D02*
X16622858Y1362620D01*
X16622858Y1362620D02*
X16575239Y1267381D01*
X16575239Y1267381D02*
X16527620Y1219762D01*
X17651429Y1362620D02*
X17651429Y2362620D01*
X17651429Y2362620D02*
X18222857Y1362620D01*
X18222857Y1362620D02*
X18222857Y2362620D01*
X18699048Y1457858D02*
X18746667Y1410239D01*
X18746667Y1410239D02*
X18699048Y1362620D01*
X18699048Y1362620D02*
X18651429Y1410239D01*
X18651429Y1410239D02*
X18699048Y1457858D01*
X18699048Y1457858D02*
X18699048Y1362620D01*
X19775238Y1362620D02*
X19775238Y2362620D01*
X20346666Y1362620D02*
X19918095Y1934048D01*
X20346666Y2362620D02*
X19775238Y1791191D01*
X21203809Y2029286D02*
X21203809Y1362620D01*
X20775238Y2029286D02*
X20775238Y1505477D01*
X20775238Y1505477D02*
X20822857Y1410239D01*
X20822857Y1410239D02*
X20918095Y1362620D01*
X20918095Y1362620D02*
X21060952Y1362620D01*
X21060952Y1362620D02*
X21156190Y1410239D01*
X21156190Y1410239D02*
X21203809Y1457858D01*
X21680000Y1362620D02*
X21680000Y2029286D01*
X21680000Y1934048D02*
X21727619Y1981667D01*
X21727619Y1981667D02*
X21822857Y2029286D01*
X21822857Y2029286D02*
X21965714Y2029286D01*
X21965714Y2029286D02*
X22060952Y1981667D01*
X22060952Y1981667D02*
X22108571Y1886429D01*
X22108571Y1886429D02*
X22108571Y1362620D01*
X22108571Y1886429D02*
X22156190Y1981667D01*
X22156190Y1981667D02*
X22251428Y2029286D01*
X22251428Y2029286D02*
X22394285Y2029286D01*
X22394285Y2029286D02*
X22489524Y1981667D01*
X22489524Y1981667D02*
X22537143Y1886429D01*
X22537143Y1886429D02*
X22537143Y1362620D01*
X23441904Y1362620D02*
X23441904Y1886429D01*
X23441904Y1886429D02*
X23394285Y1981667D01*
X23394285Y1981667D02*
X23299047Y2029286D01*
X23299047Y2029286D02*
X23108571Y2029286D01*
X23108571Y2029286D02*
X23013333Y1981667D01*
X23441904Y1410239D02*
X23346666Y1362620D01*
X23346666Y1362620D02*
X23108571Y1362620D01*
X23108571Y1362620D02*
X23013333Y1410239D01*
X23013333Y1410239D02*
X22965714Y1505477D01*
X22965714Y1505477D02*
X22965714Y1600715D01*
X22965714Y1600715D02*
X23013333Y1695953D01*
X23013333Y1695953D02*
X23108571Y1743572D01*
X23108571Y1743572D02*
X23346666Y1743572D01*
X23346666Y1743572D02*
X23441904Y1791191D01*
X24346666Y2029286D02*
X24346666Y1219762D01*
X24346666Y1219762D02*
X24299047Y1124524D01*
X24299047Y1124524D02*
X24251428Y1076905D01*
X24251428Y1076905D02*
X24156190Y1029286D01*
X24156190Y1029286D02*
X24013333Y1029286D01*
X24013333Y1029286D02*
X23918095Y1076905D01*
X24346666Y1410239D02*
X24251428Y1362620D01*
X24251428Y1362620D02*
X24060952Y1362620D01*
X24060952Y1362620D02*
X23965714Y1410239D01*
X23965714Y1410239D02*
X23918095Y1457858D01*
X23918095Y1457858D02*
X23870476Y1553096D01*
X23870476Y1553096D02*
X23870476Y1838810D01*
X23870476Y1838810D02*
X23918095Y1934048D01*
X23918095Y1934048D02*
X23965714Y1981667D01*
X23965714Y1981667D02*
X24060952Y2029286D01*
X24060952Y2029286D02*
X24251428Y2029286D01*
X24251428Y2029286D02*
X24346666Y1981667D01*
X25251428Y1362620D02*
X25251428Y1886429D01*
X25251428Y1886429D02*
X25203809Y1981667D01*
X25203809Y1981667D02*
X25108571Y2029286D01*
X25108571Y2029286D02*
X24918095Y2029286D01*
X24918095Y2029286D02*
X24822857Y1981667D01*
X25251428Y1410239D02*
X25156190Y1362620D01*
X25156190Y1362620D02*
X24918095Y1362620D01*
X24918095Y1362620D02*
X24822857Y1410239D01*
X24822857Y1410239D02*
X24775238Y1505477D01*
X24775238Y1505477D02*
X24775238Y1600715D01*
X24775238Y1600715D02*
X24822857Y1695953D01*
X24822857Y1695953D02*
X24918095Y1743572D01*
X24918095Y1743572D02*
X25156190Y1743572D01*
X25156190Y1743572D02*
X25251428Y1791191D01*
X25727619Y1362620D02*
X25727619Y2029286D01*
X25727619Y2362620D02*
X25680000Y2315000D01*
X25680000Y2315000D02*
X25727619Y2267381D01*
X25727619Y2267381D02*
X25775238Y2315000D01*
X25775238Y2315000D02*
X25727619Y2362620D01*
X25727619Y2362620D02*
X25727619Y2267381D01*
D12*
X58812856Y13166429D02*
X58812856Y14666429D01*
X58812856Y13952143D02*
X59669999Y13952143D01*
X59669999Y13166429D02*
X59669999Y14666429D01*
X60312857Y13595000D02*
X61027143Y13595000D01*
X60170000Y13166429D02*
X60670000Y14666429D01*
X60670000Y14666429D02*
X61170000Y13166429D01*
X62384285Y13166429D02*
X61669999Y13166429D01*
X61669999Y13166429D02*
X61669999Y14666429D01*
X62670000Y14666429D02*
X63527143Y14666429D01*
X63098571Y13166429D02*
X63098571Y14666429D01*
X58605714Y15195000D02*
X63520000Y15195000D01*
D11*
X22260857Y55797715D02*
X21060857Y55797715D01*
X21060857Y55797715D02*
X21060857Y56254858D01*
X21060857Y56254858D02*
X21118000Y56369143D01*
X21118000Y56369143D02*
X21175142Y56426286D01*
X21175142Y56426286D02*
X21289428Y56483429D01*
X21289428Y56483429D02*
X21460857Y56483429D01*
X21460857Y56483429D02*
X21575142Y56426286D01*
X21575142Y56426286D02*
X21632285Y56369143D01*
X21632285Y56369143D02*
X21689428Y56254858D01*
X21689428Y56254858D02*
X21689428Y55797715D01*
X21918000Y56940572D02*
X21918000Y57512000D01*
X22260857Y56826286D02*
X21060857Y57226286D01*
X21060857Y57226286D02*
X22260857Y57626286D01*
X21060857Y58597714D02*
X21060857Y58026286D01*
X21060857Y58026286D02*
X21632285Y57969143D01*
X21632285Y57969143D02*
X21575142Y58026286D01*
X21575142Y58026286D02*
X21518000Y58140571D01*
X21518000Y58140571D02*
X21518000Y58426286D01*
X21518000Y58426286D02*
X21575142Y58540571D01*
X21575142Y58540571D02*
X21632285Y58597714D01*
X21632285Y58597714D02*
X21746571Y58654857D01*
X21746571Y58654857D02*
X22032285Y58654857D01*
X22032285Y58654857D02*
X22146571Y58597714D01*
X22146571Y58597714D02*
X22203714Y58540571D01*
X22203714Y58540571D02*
X22260857Y58426286D01*
X22260857Y58426286D02*
X22260857Y58140571D01*
X22260857Y58140571D02*
X22203714Y58026286D01*
X22203714Y58026286D02*
X22146571Y57969143D01*
X5027714Y27579143D02*
X5027714Y28779143D01*
X5027714Y28779143D02*
X5484857Y28779143D01*
X5484857Y28779143D02*
X5599142Y28722000D01*
X5599142Y28722000D02*
X5656285Y28664858D01*
X5656285Y28664858D02*
X5713428Y28550572D01*
X5713428Y28550572D02*
X5713428Y28379143D01*
X5713428Y28379143D02*
X5656285Y28264858D01*
X5656285Y28264858D02*
X5599142Y28207715D01*
X5599142Y28207715D02*
X5484857Y28150572D01*
X5484857Y28150572D02*
X5027714Y28150572D01*
X6227714Y28207715D02*
X6627714Y28207715D01*
X6799142Y27579143D02*
X6227714Y27579143D01*
X6227714Y27579143D02*
X6227714Y28779143D01*
X6227714Y28779143D02*
X6799142Y28779143D01*
X7199142Y28779143D02*
X7941999Y28779143D01*
X7941999Y28779143D02*
X7541999Y28322000D01*
X7541999Y28322000D02*
X7713428Y28322000D01*
X7713428Y28322000D02*
X7827714Y28264858D01*
X7827714Y28264858D02*
X7884856Y28207715D01*
X7884856Y28207715D02*
X7941999Y28093429D01*
X7941999Y28093429D02*
X7941999Y27807715D01*
X7941999Y27807715D02*
X7884856Y27693429D01*
X7884856Y27693429D02*
X7827714Y27636286D01*
X7827714Y27636286D02*
X7713428Y27579143D01*
X7713428Y27579143D02*
X7370571Y27579143D01*
X7370571Y27579143D02*
X7256285Y27636286D01*
X7256285Y27636286D02*
X7199142Y27693429D01*
X52810857Y55626286D02*
X54010857Y56026286D01*
X54010857Y56026286D02*
X52810857Y56426286D01*
X53896571Y57512000D02*
X53953714Y57454857D01*
X53953714Y57454857D02*
X54010857Y57283429D01*
X54010857Y57283429D02*
X54010857Y57169143D01*
X54010857Y57169143D02*
X53953714Y56997714D01*
X53953714Y56997714D02*
X53839428Y56883429D01*
X53839428Y56883429D02*
X53725142Y56826286D01*
X53725142Y56826286D02*
X53496571Y56769143D01*
X53496571Y56769143D02*
X53325142Y56769143D01*
X53325142Y56769143D02*
X53096571Y56826286D01*
X53096571Y56826286D02*
X52982285Y56883429D01*
X52982285Y56883429D02*
X52868000Y56997714D01*
X52868000Y56997714D02*
X52810857Y57169143D01*
X52810857Y57169143D02*
X52810857Y57283429D01*
X52810857Y57283429D02*
X52868000Y57454857D01*
X52868000Y57454857D02*
X52925142Y57512000D01*
X53896571Y58712000D02*
X53953714Y58654857D01*
X53953714Y58654857D02*
X54010857Y58483429D01*
X54010857Y58483429D02*
X54010857Y58369143D01*
X54010857Y58369143D02*
X53953714Y58197714D01*
X53953714Y58197714D02*
X53839428Y58083429D01*
X53839428Y58083429D02*
X53725142Y58026286D01*
X53725142Y58026286D02*
X53496571Y57969143D01*
X53496571Y57969143D02*
X53325142Y57969143D01*
X53325142Y57969143D02*
X53096571Y58026286D01*
X53096571Y58026286D02*
X52982285Y58083429D01*
X52982285Y58083429D02*
X52868000Y58197714D01*
X52868000Y58197714D02*
X52810857Y58369143D01*
X52810857Y58369143D02*
X52810857Y58483429D01*
X52810857Y58483429D02*
X52868000Y58654857D01*
X52868000Y58654857D02*
X52925142Y58712000D01*
D12*
X89355714Y41535000D02*
X90070000Y41535000D01*
X89212857Y41106429D02*
X89712857Y42606429D01*
X89712857Y42606429D02*
X90212857Y41106429D01*
X91355714Y42106429D02*
X91355714Y41106429D01*
X90998571Y42677858D02*
X90641428Y41606429D01*
X90641428Y41606429D02*
X91569999Y41606429D01*
X89427142Y23326429D02*
X89427142Y24826429D01*
X89427142Y24826429D02*
X89927142Y23755000D01*
X89927142Y23755000D02*
X90427142Y24826429D01*
X90427142Y24826429D02*
X90427142Y23326429D01*
X91927143Y23326429D02*
X91070000Y23326429D01*
X91498571Y23326429D02*
X91498571Y24826429D01*
X91498571Y24826429D02*
X91355714Y24612143D01*
X91355714Y24612143D02*
X91212857Y24469286D01*
X91212857Y24469286D02*
X91070000Y24397858D01*
X89220000Y25355000D02*
X92062857Y25355000D01*
X60598570Y18246429D02*
X60598570Y19746429D01*
X61312856Y18246429D02*
X61312856Y19746429D01*
X61312856Y19746429D02*
X62169999Y18246429D01*
X62169999Y18246429D02*
X62169999Y19746429D01*
X62670000Y19746429D02*
X63527143Y19746429D01*
X63098571Y18246429D02*
X63098571Y19746429D01*
X60391428Y20275000D02*
X63520000Y20275000D01*
X60027141Y15706429D02*
X60027141Y17206429D01*
X60027141Y17206429D02*
X60884284Y15706429D01*
X60884284Y15706429D02*
X60884284Y17206429D01*
X61598570Y15706429D02*
X61598570Y17206429D01*
X61598570Y17206429D02*
X62098570Y16135000D01*
X62098570Y16135000D02*
X62598570Y17206429D01*
X62598570Y17206429D02*
X62598570Y15706429D01*
X63312856Y15706429D02*
X63312856Y17206429D01*
X59819999Y17735000D02*
X63520000Y17735000D01*
X89355714Y49155000D02*
X90070000Y49155000D01*
X89212857Y48726429D02*
X89712857Y50226429D01*
X89712857Y50226429D02*
X90212857Y48726429D01*
X90569999Y50226429D02*
X91569999Y50226429D01*
X91569999Y50226429D02*
X90927142Y48726429D01*
X89927142Y13952143D02*
X90141428Y13880715D01*
X90141428Y13880715D02*
X90212857Y13809286D01*
X90212857Y13809286D02*
X90284285Y13666429D01*
X90284285Y13666429D02*
X90284285Y13452143D01*
X90284285Y13452143D02*
X90212857Y13309286D01*
X90212857Y13309286D02*
X90141428Y13237858D01*
X90141428Y13237858D02*
X89998571Y13166429D01*
X89998571Y13166429D02*
X89427142Y13166429D01*
X89427142Y13166429D02*
X89427142Y14666429D01*
X89427142Y14666429D02*
X89927142Y14666429D01*
X89927142Y14666429D02*
X90070000Y14595000D01*
X90070000Y14595000D02*
X90141428Y14523572D01*
X90141428Y14523572D02*
X90212857Y14380715D01*
X90212857Y14380715D02*
X90212857Y14237858D01*
X90212857Y14237858D02*
X90141428Y14095000D01*
X90141428Y14095000D02*
X90070000Y14023572D01*
X90070000Y14023572D02*
X89927142Y13952143D01*
X89927142Y13952143D02*
X89427142Y13952143D01*
X90927142Y14666429D02*
X90927142Y13452143D01*
X90927142Y13452143D02*
X90998571Y13309286D01*
X90998571Y13309286D02*
X91070000Y13237858D01*
X91070000Y13237858D02*
X91212857Y13166429D01*
X91212857Y13166429D02*
X91498571Y13166429D01*
X91498571Y13166429D02*
X91641428Y13237858D01*
X91641428Y13237858D02*
X91712857Y13309286D01*
X91712857Y13309286D02*
X91784285Y13452143D01*
X91784285Y13452143D02*
X91784285Y14666429D01*
X92427143Y13237858D02*
X92641429Y13166429D01*
X92641429Y13166429D02*
X92998571Y13166429D01*
X92998571Y13166429D02*
X93141429Y13237858D01*
X93141429Y13237858D02*
X93212857Y13309286D01*
X93212857Y13309286D02*
X93284286Y13452143D01*
X93284286Y13452143D02*
X93284286Y13595000D01*
X93284286Y13595000D02*
X93212857Y13737858D01*
X93212857Y13737858D02*
X93141429Y13809286D01*
X93141429Y13809286D02*
X92998571Y13880715D01*
X92998571Y13880715D02*
X92712857Y13952143D01*
X92712857Y13952143D02*
X92570000Y14023572D01*
X92570000Y14023572D02*
X92498571Y14095000D01*
X92498571Y14095000D02*
X92427143Y14237858D01*
X92427143Y14237858D02*
X92427143Y14380715D01*
X92427143Y14380715D02*
X92498571Y14523572D01*
X92498571Y14523572D02*
X92570000Y14595000D01*
X92570000Y14595000D02*
X92712857Y14666429D01*
X92712857Y14666429D02*
X93070000Y14666429D01*
X93070000Y14666429D02*
X93284286Y14595000D01*
X93855714Y13595000D02*
X94570000Y13595000D01*
X93712857Y13166429D02*
X94212857Y14666429D01*
X94212857Y14666429D02*
X94712857Y13166429D01*
X95212856Y13166429D02*
X95212856Y14666429D01*
X96069999Y13166429D02*
X95427142Y14023572D01*
X96069999Y14666429D02*
X95212856Y13809286D01*
X89220000Y15195000D02*
X96205714Y15195000D01*
D11*
X5027714Y19959143D02*
X5027714Y21159143D01*
X5027714Y21159143D02*
X5484857Y21159143D01*
X5484857Y21159143D02*
X5599142Y21102000D01*
X5599142Y21102000D02*
X5656285Y21044858D01*
X5656285Y21044858D02*
X5713428Y20930572D01*
X5713428Y20930572D02*
X5713428Y20759143D01*
X5713428Y20759143D02*
X5656285Y20644858D01*
X5656285Y20644858D02*
X5599142Y20587715D01*
X5599142Y20587715D02*
X5484857Y20530572D01*
X5484857Y20530572D02*
X5027714Y20530572D01*
X6227714Y20587715D02*
X6627714Y20587715D01*
X6799142Y19959143D02*
X6227714Y19959143D01*
X6227714Y19959143D02*
X6227714Y21159143D01*
X6227714Y21159143D02*
X6799142Y21159143D01*
X7827714Y21159143D02*
X7599142Y21159143D01*
X7599142Y21159143D02*
X7484856Y21102000D01*
X7484856Y21102000D02*
X7427714Y21044858D01*
X7427714Y21044858D02*
X7313428Y20873429D01*
X7313428Y20873429D02*
X7256285Y20644858D01*
X7256285Y20644858D02*
X7256285Y20187715D01*
X7256285Y20187715D02*
X7313428Y20073429D01*
X7313428Y20073429D02*
X7370571Y20016286D01*
X7370571Y20016286D02*
X7484856Y19959143D01*
X7484856Y19959143D02*
X7713428Y19959143D01*
X7713428Y19959143D02*
X7827714Y20016286D01*
X7827714Y20016286D02*
X7884856Y20073429D01*
X7884856Y20073429D02*
X7941999Y20187715D01*
X7941999Y20187715D02*
X7941999Y20473429D01*
X7941999Y20473429D02*
X7884856Y20587715D01*
X7884856Y20587715D02*
X7827714Y20644858D01*
X7827714Y20644858D02*
X7713428Y20702000D01*
X7713428Y20702000D02*
X7484856Y20702000D01*
X7484856Y20702000D02*
X7370571Y20644858D01*
X7370571Y20644858D02*
X7313428Y20587715D01*
X7313428Y20587715D02*
X7256285Y20473429D01*
X12100857Y55797715D02*
X10900857Y55797715D01*
X10900857Y55797715D02*
X10900857Y56254858D01*
X10900857Y56254858D02*
X10958000Y56369143D01*
X10958000Y56369143D02*
X11015142Y56426286D01*
X11015142Y56426286D02*
X11129428Y56483429D01*
X11129428Y56483429D02*
X11300857Y56483429D01*
X11300857Y56483429D02*
X11415142Y56426286D01*
X11415142Y56426286D02*
X11472285Y56369143D01*
X11472285Y56369143D02*
X11529428Y56254858D01*
X11529428Y56254858D02*
X11529428Y55797715D01*
X11758000Y56940572D02*
X11758000Y57512000D01*
X12100857Y56826286D02*
X10900857Y57226286D01*
X10900857Y57226286D02*
X12100857Y57626286D01*
X12100857Y58654857D02*
X12100857Y57969143D01*
X12100857Y58312000D02*
X10900857Y58312000D01*
X10900857Y58312000D02*
X11072285Y58197714D01*
X11072285Y58197714D02*
X11186571Y58083429D01*
X11186571Y58083429D02*
X11243714Y57969143D01*
D12*
X59527143Y32446429D02*
X60027143Y30946429D01*
X60027143Y30946429D02*
X60527143Y32446429D01*
X61884285Y31089286D02*
X61812857Y31017858D01*
X61812857Y31017858D02*
X61598571Y30946429D01*
X61598571Y30946429D02*
X61455714Y30946429D01*
X61455714Y30946429D02*
X61241428Y31017858D01*
X61241428Y31017858D02*
X61098571Y31160715D01*
X61098571Y31160715D02*
X61027142Y31303572D01*
X61027142Y31303572D02*
X60955714Y31589286D01*
X60955714Y31589286D02*
X60955714Y31803572D01*
X60955714Y31803572D02*
X61027142Y32089286D01*
X61027142Y32089286D02*
X61098571Y32232143D01*
X61098571Y32232143D02*
X61241428Y32375000D01*
X61241428Y32375000D02*
X61455714Y32446429D01*
X61455714Y32446429D02*
X61598571Y32446429D01*
X61598571Y32446429D02*
X61812857Y32375000D01*
X61812857Y32375000D02*
X61884285Y32303572D01*
X63384285Y31089286D02*
X63312857Y31017858D01*
X63312857Y31017858D02*
X63098571Y30946429D01*
X63098571Y30946429D02*
X62955714Y30946429D01*
X62955714Y30946429D02*
X62741428Y31017858D01*
X62741428Y31017858D02*
X62598571Y31160715D01*
X62598571Y31160715D02*
X62527142Y31303572D01*
X62527142Y31303572D02*
X62455714Y31589286D01*
X62455714Y31589286D02*
X62455714Y31803572D01*
X62455714Y31803572D02*
X62527142Y32089286D01*
X62527142Y32089286D02*
X62598571Y32232143D01*
X62598571Y32232143D02*
X62741428Y32375000D01*
X62741428Y32375000D02*
X62955714Y32446429D01*
X62955714Y32446429D02*
X63098571Y32446429D01*
X63098571Y32446429D02*
X63312857Y32375000D01*
X63312857Y32375000D02*
X63384285Y32303572D01*
D11*
X24800857Y55797715D02*
X23600857Y55797715D01*
X23600857Y55797715D02*
X23600857Y56254858D01*
X23600857Y56254858D02*
X23658000Y56369143D01*
X23658000Y56369143D02*
X23715142Y56426286D01*
X23715142Y56426286D02*
X23829428Y56483429D01*
X23829428Y56483429D02*
X24000857Y56483429D01*
X24000857Y56483429D02*
X24115142Y56426286D01*
X24115142Y56426286D02*
X24172285Y56369143D01*
X24172285Y56369143D02*
X24229428Y56254858D01*
X24229428Y56254858D02*
X24229428Y55797715D01*
X24458000Y56940572D02*
X24458000Y57512000D01*
X24800857Y56826286D02*
X23600857Y57226286D01*
X23600857Y57226286D02*
X24800857Y57626286D01*
X23600857Y58540571D02*
X23600857Y58312000D01*
X23600857Y58312000D02*
X23658000Y58197714D01*
X23658000Y58197714D02*
X23715142Y58140571D01*
X23715142Y58140571D02*
X23886571Y58026286D01*
X23886571Y58026286D02*
X24115142Y57969143D01*
X24115142Y57969143D02*
X24572285Y57969143D01*
X24572285Y57969143D02*
X24686571Y58026286D01*
X24686571Y58026286D02*
X24743714Y58083429D01*
X24743714Y58083429D02*
X24800857Y58197714D01*
X24800857Y58197714D02*
X24800857Y58426286D01*
X24800857Y58426286D02*
X24743714Y58540571D01*
X24743714Y58540571D02*
X24686571Y58597714D01*
X24686571Y58597714D02*
X24572285Y58654857D01*
X24572285Y58654857D02*
X24286571Y58654857D01*
X24286571Y58654857D02*
X24172285Y58597714D01*
X24172285Y58597714D02*
X24115142Y58540571D01*
X24115142Y58540571D02*
X24058000Y58426286D01*
X24058000Y58426286D02*
X24058000Y58197714D01*
X24058000Y58197714D02*
X24115142Y58083429D01*
X24115142Y58083429D02*
X24172285Y58026286D01*
X24172285Y58026286D02*
X24286571Y57969143D01*
D12*
X61098571Y23326429D02*
X61098571Y24826429D01*
X61098571Y24826429D02*
X61455714Y24826429D01*
X61455714Y24826429D02*
X61670000Y24755000D01*
X61670000Y24755000D02*
X61812857Y24612143D01*
X61812857Y24612143D02*
X61884286Y24469286D01*
X61884286Y24469286D02*
X61955714Y24183572D01*
X61955714Y24183572D02*
X61955714Y23969286D01*
X61955714Y23969286D02*
X61884286Y23683572D01*
X61884286Y23683572D02*
X61812857Y23540715D01*
X61812857Y23540715D02*
X61670000Y23397858D01*
X61670000Y23397858D02*
X61455714Y23326429D01*
X61455714Y23326429D02*
X61098571Y23326429D01*
X62884286Y24826429D02*
X63027143Y24826429D01*
X63027143Y24826429D02*
X63170000Y24755000D01*
X63170000Y24755000D02*
X63241429Y24683572D01*
X63241429Y24683572D02*
X63312857Y24540715D01*
X63312857Y24540715D02*
X63384286Y24255000D01*
X63384286Y24255000D02*
X63384286Y23897858D01*
X63384286Y23897858D02*
X63312857Y23612143D01*
X63312857Y23612143D02*
X63241429Y23469286D01*
X63241429Y23469286D02*
X63170000Y23397858D01*
X63170000Y23397858D02*
X63027143Y23326429D01*
X63027143Y23326429D02*
X62884286Y23326429D01*
X62884286Y23326429D02*
X62741429Y23397858D01*
X62741429Y23397858D02*
X62670000Y23469286D01*
X62670000Y23469286D02*
X62598571Y23612143D01*
X62598571Y23612143D02*
X62527143Y23897858D01*
X62527143Y23897858D02*
X62527143Y24255000D01*
X62527143Y24255000D02*
X62598571Y24540715D01*
X62598571Y24540715D02*
X62670000Y24683572D01*
X62670000Y24683572D02*
X62741429Y24755000D01*
X62741429Y24755000D02*
X62884286Y24826429D01*
D10*
X42191904Y12137620D02*
X41620476Y12137620D01*
X41906190Y12137620D02*
X41906190Y13137620D01*
X41906190Y13137620D02*
X41810952Y12994762D01*
X41810952Y12994762D02*
X41715714Y12899524D01*
X41715714Y12899524D02*
X41620476Y12851905D01*
X42810952Y13137620D02*
X42906190Y13137620D01*
X42906190Y13137620D02*
X43001428Y13090000D01*
X43001428Y13090000D02*
X43049047Y13042381D01*
X43049047Y13042381D02*
X43096666Y12947143D01*
X43096666Y12947143D02*
X43144285Y12756667D01*
X43144285Y12756667D02*
X43144285Y12518572D01*
X43144285Y12518572D02*
X43096666Y12328096D01*
X43096666Y12328096D02*
X43049047Y12232858D01*
X43049047Y12232858D02*
X43001428Y12185239D01*
X43001428Y12185239D02*
X42906190Y12137620D01*
X42906190Y12137620D02*
X42810952Y12137620D01*
X42810952Y12137620D02*
X42715714Y12185239D01*
X42715714Y12185239D02*
X42668095Y12232858D01*
X42668095Y12232858D02*
X42620476Y12328096D01*
X42620476Y12328096D02*
X42572857Y12518572D01*
X42572857Y12518572D02*
X42572857Y12756667D01*
X42572857Y12756667D02*
X42620476Y12947143D01*
X42620476Y12947143D02*
X42668095Y13042381D01*
X42668095Y13042381D02*
X42715714Y13090000D01*
X42715714Y13090000D02*
X42810952Y13137620D01*
X43572857Y12137620D02*
X43572857Y13137620D01*
X43572857Y13137620D02*
X43906190Y12423334D01*
X43906190Y12423334D02*
X44239523Y13137620D01*
X44239523Y13137620D02*
X44239523Y12137620D01*
D12*
X89284285Y17206429D02*
X89641428Y15706429D01*
X89641428Y15706429D02*
X89927142Y16777858D01*
X89927142Y16777858D02*
X90212857Y15706429D01*
X90212857Y15706429D02*
X90570000Y17206429D01*
X91070000Y16135000D02*
X91784286Y16135000D01*
X90927143Y15706429D02*
X91427143Y17206429D01*
X91427143Y17206429D02*
X91927143Y15706429D01*
X92427142Y15706429D02*
X92427142Y17206429D01*
X92927143Y17206429D02*
X93784286Y17206429D01*
X93355714Y15706429D02*
X93355714Y17206429D01*
X89220000Y17735000D02*
X93777143Y17735000D01*
X89355714Y31375000D02*
X90070000Y31375000D01*
X89212857Y30946429D02*
X89712857Y32446429D01*
X89712857Y32446429D02*
X90212857Y30946429D01*
X90998571Y32446429D02*
X91141428Y32446429D01*
X91141428Y32446429D02*
X91284285Y32375000D01*
X91284285Y32375000D02*
X91355714Y32303572D01*
X91355714Y32303572D02*
X91427142Y32160715D01*
X91427142Y32160715D02*
X91498571Y31875000D01*
X91498571Y31875000D02*
X91498571Y31517858D01*
X91498571Y31517858D02*
X91427142Y31232143D01*
X91427142Y31232143D02*
X91355714Y31089286D01*
X91355714Y31089286D02*
X91284285Y31017858D01*
X91284285Y31017858D02*
X91141428Y30946429D01*
X91141428Y30946429D02*
X90998571Y30946429D01*
X90998571Y30946429D02*
X90855714Y31017858D01*
X90855714Y31017858D02*
X90784285Y31089286D01*
X90784285Y31089286D02*
X90712856Y31232143D01*
X90712856Y31232143D02*
X90641428Y31517858D01*
X90641428Y31517858D02*
X90641428Y31875000D01*
X90641428Y31875000D02*
X90712856Y32160715D01*
X90712856Y32160715D02*
X90784285Y32303572D01*
X90784285Y32303572D02*
X90855714Y32375000D01*
X90855714Y32375000D02*
X90998571Y32446429D01*
D13*
X29081428Y1036143D02*
X28681428Y1607572D01*
X28395714Y1036143D02*
X28395714Y2236143D01*
X28395714Y2236143D02*
X28852857Y2236143D01*
X28852857Y2236143D02*
X28967142Y2179000D01*
X28967142Y2179000D02*
X29024285Y2121858D01*
X29024285Y2121858D02*
X29081428Y2007572D01*
X29081428Y2007572D02*
X29081428Y1836143D01*
X29081428Y1836143D02*
X29024285Y1721858D01*
X29024285Y1721858D02*
X28967142Y1664715D01*
X28967142Y1664715D02*
X28852857Y1607572D01*
X28852857Y1607572D02*
X28395714Y1607572D01*
X30052857Y1093286D02*
X29938571Y1036143D01*
X29938571Y1036143D02*
X29710000Y1036143D01*
X29710000Y1036143D02*
X29595714Y1093286D01*
X29595714Y1093286D02*
X29538571Y1207572D01*
X29538571Y1207572D02*
X29538571Y1664715D01*
X29538571Y1664715D02*
X29595714Y1779000D01*
X29595714Y1779000D02*
X29710000Y1836143D01*
X29710000Y1836143D02*
X29938571Y1836143D01*
X29938571Y1836143D02*
X30052857Y1779000D01*
X30052857Y1779000D02*
X30110000Y1664715D01*
X30110000Y1664715D02*
X30110000Y1550429D01*
X30110000Y1550429D02*
X29538571Y1436143D01*
X30509999Y1836143D02*
X30795713Y1036143D01*
X30795713Y1036143D02*
X31081428Y1836143D01*
X31538571Y1150429D02*
X31595714Y1093286D01*
X31595714Y1093286D02*
X31538571Y1036143D01*
X31538571Y1036143D02*
X31481428Y1093286D01*
X31481428Y1093286D02*
X31538571Y1150429D01*
X31538571Y1150429D02*
X31538571Y1036143D01*
X33058571Y2236143D02*
X33172857Y2236143D01*
X33172857Y2236143D02*
X33287143Y2179000D01*
X33287143Y2179000D02*
X33344286Y2121858D01*
X33344286Y2121858D02*
X33401428Y2007572D01*
X33401428Y2007572D02*
X33458571Y1779000D01*
X33458571Y1779000D02*
X33458571Y1493286D01*
X33458571Y1493286D02*
X33401428Y1264715D01*
X33401428Y1264715D02*
X33344286Y1150429D01*
X33344286Y1150429D02*
X33287143Y1093286D01*
X33287143Y1093286D02*
X33172857Y1036143D01*
X33172857Y1036143D02*
X33058571Y1036143D01*
X33058571Y1036143D02*
X32944286Y1093286D01*
X32944286Y1093286D02*
X32887143Y1150429D01*
X32887143Y1150429D02*
X32830000Y1264715D01*
X32830000Y1264715D02*
X32772857Y1493286D01*
X32772857Y1493286D02*
X32772857Y1779000D01*
X32772857Y1779000D02*
X32830000Y2007572D01*
X32830000Y2007572D02*
X32887143Y2121858D01*
X32887143Y2121858D02*
X32944286Y2179000D01*
X32944286Y2179000D02*
X33058571Y2236143D01*
X34201428Y2236143D02*
X34315714Y2236143D01*
X34315714Y2236143D02*
X34430000Y2179000D01*
X34430000Y2179000D02*
X34487143Y2121858D01*
X34487143Y2121858D02*
X34544285Y2007572D01*
X34544285Y2007572D02*
X34601428Y1779000D01*
X34601428Y1779000D02*
X34601428Y1493286D01*
X34601428Y1493286D02*
X34544285Y1264715D01*
X34544285Y1264715D02*
X34487143Y1150429D01*
X34487143Y1150429D02*
X34430000Y1093286D01*
X34430000Y1093286D02*
X34315714Y1036143D01*
X34315714Y1036143D02*
X34201428Y1036143D01*
X34201428Y1036143D02*
X34087143Y1093286D01*
X34087143Y1093286D02*
X34030000Y1150429D01*
X34030000Y1150429D02*
X33972857Y1264715D01*
X33972857Y1264715D02*
X33915714Y1493286D01*
X33915714Y1493286D02*
X33915714Y1779000D01*
X33915714Y1779000D02*
X33972857Y2007572D01*
X33972857Y2007572D02*
X34030000Y2121858D01*
X34030000Y2121858D02*
X34087143Y2179000D01*
X34087143Y2179000D02*
X34201428Y2236143D01*
X35058571Y2121858D02*
X35115714Y2179000D01*
X35115714Y2179000D02*
X35230000Y2236143D01*
X35230000Y2236143D02*
X35515714Y2236143D01*
X35515714Y2236143D02*
X35630000Y2179000D01*
X35630000Y2179000D02*
X35687142Y2121858D01*
X35687142Y2121858D02*
X35744285Y2007572D01*
X35744285Y2007572D02*
X35744285Y1893286D01*
X35744285Y1893286D02*
X35687142Y1721858D01*
X35687142Y1721858D02*
X35001428Y1036143D01*
X35001428Y1036143D02*
X35744285Y1036143D01*
D11*
X48930857Y55797715D02*
X47730857Y55797715D01*
X47730857Y55797715D02*
X47730857Y56254858D01*
X47730857Y56254858D02*
X47788000Y56369143D01*
X47788000Y56369143D02*
X47845142Y56426286D01*
X47845142Y56426286D02*
X47959428Y56483429D01*
X47959428Y56483429D02*
X48130857Y56483429D01*
X48130857Y56483429D02*
X48245142Y56426286D01*
X48245142Y56426286D02*
X48302285Y56369143D01*
X48302285Y56369143D02*
X48359428Y56254858D01*
X48359428Y56254858D02*
X48359428Y55797715D01*
X48930857Y56997715D02*
X47730857Y56997715D01*
X47730857Y56997715D02*
X47730857Y57283429D01*
X47730857Y57283429D02*
X47788000Y57454858D01*
X47788000Y57454858D02*
X47902285Y57569143D01*
X47902285Y57569143D02*
X48016571Y57626286D01*
X48016571Y57626286D02*
X48245142Y57683429D01*
X48245142Y57683429D02*
X48416571Y57683429D01*
X48416571Y57683429D02*
X48645142Y57626286D01*
X48645142Y57626286D02*
X48759428Y57569143D01*
X48759428Y57569143D02*
X48873714Y57454858D01*
X48873714Y57454858D02*
X48930857Y57283429D01*
X48930857Y57283429D02*
X48930857Y56997715D01*
X48930857Y58826286D02*
X48930857Y58140572D01*
X48930857Y58483429D02*
X47730857Y58483429D01*
X47730857Y58483429D02*
X47902285Y58369143D01*
X47902285Y58369143D02*
X48016571Y58254858D01*
X48016571Y58254858D02*
X48073714Y58140572D01*
X19720857Y55797715D02*
X18520857Y55797715D01*
X18520857Y55797715D02*
X18520857Y56254858D01*
X18520857Y56254858D02*
X18578000Y56369143D01*
X18578000Y56369143D02*
X18635142Y56426286D01*
X18635142Y56426286D02*
X18749428Y56483429D01*
X18749428Y56483429D02*
X18920857Y56483429D01*
X18920857Y56483429D02*
X19035142Y56426286D01*
X19035142Y56426286D02*
X19092285Y56369143D01*
X19092285Y56369143D02*
X19149428Y56254858D01*
X19149428Y56254858D02*
X19149428Y55797715D01*
X19378000Y56940572D02*
X19378000Y57512000D01*
X19720857Y56826286D02*
X18520857Y57226286D01*
X18520857Y57226286D02*
X19720857Y57626286D01*
X18920857Y58540571D02*
X19720857Y58540571D01*
X18463714Y58254857D02*
X19320857Y57969143D01*
X19320857Y57969143D02*
X19320857Y58712000D01*
X75779428Y25477143D02*
X76579428Y25477143D01*
X76579428Y25477143D02*
X76065142Y24277143D01*
X77550857Y25077143D02*
X77550857Y24277143D01*
X77265142Y25534286D02*
X76979428Y24677143D01*
X76979428Y24677143D02*
X77722285Y24677143D01*
X78179428Y24277143D02*
X78179428Y25477143D01*
X78179428Y24905715D02*
X78865142Y24905715D01*
X78865142Y24277143D02*
X78865142Y25477143D01*
X80122285Y24391429D02*
X80065142Y24334286D01*
X80065142Y24334286D02*
X79893714Y24277143D01*
X79893714Y24277143D02*
X79779428Y24277143D01*
X79779428Y24277143D02*
X79607999Y24334286D01*
X79607999Y24334286D02*
X79493714Y24448572D01*
X79493714Y24448572D02*
X79436571Y24562858D01*
X79436571Y24562858D02*
X79379428Y24791429D01*
X79379428Y24791429D02*
X79379428Y24962858D01*
X79379428Y24962858D02*
X79436571Y25191429D01*
X79436571Y25191429D02*
X79493714Y25305715D01*
X79493714Y25305715D02*
X79607999Y25420000D01*
X79607999Y25420000D02*
X79779428Y25477143D01*
X79779428Y25477143D02*
X79893714Y25477143D01*
X79893714Y25477143D02*
X80065142Y25420000D01*
X80065142Y25420000D02*
X80122285Y25362858D01*
X81207999Y25477143D02*
X80636571Y25477143D01*
X80636571Y25477143D02*
X80579428Y24905715D01*
X80579428Y24905715D02*
X80636571Y24962858D01*
X80636571Y24962858D02*
X80750857Y25020000D01*
X80750857Y25020000D02*
X81036571Y25020000D01*
X81036571Y25020000D02*
X81150857Y24962858D01*
X81150857Y24962858D02*
X81207999Y24905715D01*
X81207999Y24905715D02*
X81265142Y24791429D01*
X81265142Y24791429D02*
X81265142Y24505715D01*
X81265142Y24505715D02*
X81207999Y24391429D01*
X81207999Y24391429D02*
X81150857Y24334286D01*
X81150857Y24334286D02*
X81036571Y24277143D01*
X81036571Y24277143D02*
X80750857Y24277143D01*
X80750857Y24277143D02*
X80636571Y24334286D01*
X80636571Y24334286D02*
X80579428Y24391429D01*
X81665142Y25477143D02*
X82465142Y25477143D01*
X82465142Y25477143D02*
X81950856Y24277143D01*
X82807999Y25477143D02*
X83550856Y25477143D01*
X83550856Y25477143D02*
X83150856Y25020000D01*
X83150856Y25020000D02*
X83322285Y25020000D01*
X83322285Y25020000D02*
X83436571Y24962858D01*
X83436571Y24962858D02*
X83493713Y24905715D01*
X83493713Y24905715D02*
X83550856Y24791429D01*
X83550856Y24791429D02*
X83550856Y24505715D01*
X83550856Y24505715D02*
X83493713Y24391429D01*
X83493713Y24391429D02*
X83436571Y24334286D01*
X83436571Y24334286D02*
X83322285Y24277143D01*
X83322285Y24277143D02*
X82979428Y24277143D01*
X82979428Y24277143D02*
X82865142Y24334286D01*
X82865142Y24334286D02*
X82807999Y24391429D01*
X17180857Y55797715D02*
X15980857Y55797715D01*
X15980857Y55797715D02*
X15980857Y56254858D01*
X15980857Y56254858D02*
X16038000Y56369143D01*
X16038000Y56369143D02*
X16095142Y56426286D01*
X16095142Y56426286D02*
X16209428Y56483429D01*
X16209428Y56483429D02*
X16380857Y56483429D01*
X16380857Y56483429D02*
X16495142Y56426286D01*
X16495142Y56426286D02*
X16552285Y56369143D01*
X16552285Y56369143D02*
X16609428Y56254858D01*
X16609428Y56254858D02*
X16609428Y55797715D01*
X16838000Y56940572D02*
X16838000Y57512000D01*
X17180857Y56826286D02*
X15980857Y57226286D01*
X15980857Y57226286D02*
X17180857Y57626286D01*
X15980857Y57912000D02*
X15980857Y58654857D01*
X15980857Y58654857D02*
X16438000Y58254857D01*
X16438000Y58254857D02*
X16438000Y58426286D01*
X16438000Y58426286D02*
X16495142Y58540571D01*
X16495142Y58540571D02*
X16552285Y58597714D01*
X16552285Y58597714D02*
X16666571Y58654857D01*
X16666571Y58654857D02*
X16952285Y58654857D01*
X16952285Y58654857D02*
X17066571Y58597714D01*
X17066571Y58597714D02*
X17123714Y58540571D01*
X17123714Y58540571D02*
X17180857Y58426286D01*
X17180857Y58426286D02*
X17180857Y58083429D01*
X17180857Y58083429D02*
X17123714Y57969143D01*
X17123714Y57969143D02*
X17066571Y57912000D01*
D12*
X90284285Y25866429D02*
X89784285Y26580715D01*
X89427142Y25866429D02*
X89427142Y27366429D01*
X89427142Y27366429D02*
X89998571Y27366429D01*
X89998571Y27366429D02*
X90141428Y27295000D01*
X90141428Y27295000D02*
X90212857Y27223572D01*
X90212857Y27223572D02*
X90284285Y27080715D01*
X90284285Y27080715D02*
X90284285Y26866429D01*
X90284285Y26866429D02*
X90212857Y26723572D01*
X90212857Y26723572D02*
X90141428Y26652143D01*
X90141428Y26652143D02*
X89998571Y26580715D01*
X89998571Y26580715D02*
X89427142Y26580715D01*
X91427142Y26652143D02*
X90927142Y26652143D01*
X90927142Y25866429D02*
X90927142Y27366429D01*
X90927142Y27366429D02*
X91641428Y27366429D01*
X92141428Y25937858D02*
X92355714Y25866429D01*
X92355714Y25866429D02*
X92712856Y25866429D01*
X92712856Y25866429D02*
X92855714Y25937858D01*
X92855714Y25937858D02*
X92927142Y26009286D01*
X92927142Y26009286D02*
X92998571Y26152143D01*
X92998571Y26152143D02*
X92998571Y26295000D01*
X92998571Y26295000D02*
X92927142Y26437858D01*
X92927142Y26437858D02*
X92855714Y26509286D01*
X92855714Y26509286D02*
X92712856Y26580715D01*
X92712856Y26580715D02*
X92427142Y26652143D01*
X92427142Y26652143D02*
X92284285Y26723572D01*
X92284285Y26723572D02*
X92212856Y26795000D01*
X92212856Y26795000D02*
X92141428Y26937858D01*
X92141428Y26937858D02*
X92141428Y27080715D01*
X92141428Y27080715D02*
X92212856Y27223572D01*
X92212856Y27223572D02*
X92284285Y27295000D01*
X92284285Y27295000D02*
X92427142Y27366429D01*
X92427142Y27366429D02*
X92784285Y27366429D01*
X92784285Y27366429D02*
X92998571Y27295000D01*
X93641427Y25866429D02*
X93641427Y27366429D01*
X93641427Y26652143D02*
X94498570Y26652143D01*
X94498570Y25866429D02*
X94498570Y27366429D01*
X89220000Y27895000D02*
X94705714Y27895000D01*
X61098571Y36026429D02*
X61098571Y37526429D01*
X61098571Y37526429D02*
X61455714Y37526429D01*
X61455714Y37526429D02*
X61670000Y37455000D01*
X61670000Y37455000D02*
X61812857Y37312143D01*
X61812857Y37312143D02*
X61884286Y37169286D01*
X61884286Y37169286D02*
X61955714Y36883572D01*
X61955714Y36883572D02*
X61955714Y36669286D01*
X61955714Y36669286D02*
X61884286Y36383572D01*
X61884286Y36383572D02*
X61812857Y36240715D01*
X61812857Y36240715D02*
X61670000Y36097858D01*
X61670000Y36097858D02*
X61455714Y36026429D01*
X61455714Y36026429D02*
X61098571Y36026429D01*
X63312857Y37526429D02*
X62598571Y37526429D01*
X62598571Y37526429D02*
X62527143Y36812143D01*
X62527143Y36812143D02*
X62598571Y36883572D01*
X62598571Y36883572D02*
X62741429Y36955000D01*
X62741429Y36955000D02*
X63098571Y36955000D01*
X63098571Y36955000D02*
X63241429Y36883572D01*
X63241429Y36883572D02*
X63312857Y36812143D01*
X63312857Y36812143D02*
X63384286Y36669286D01*
X63384286Y36669286D02*
X63384286Y36312143D01*
X63384286Y36312143D02*
X63312857Y36169286D01*
X63312857Y36169286D02*
X63241429Y36097858D01*
X63241429Y36097858D02*
X63098571Y36026429D01*
X63098571Y36026429D02*
X62741429Y36026429D01*
X62741429Y36026429D02*
X62598571Y36097858D01*
X62598571Y36097858D02*
X62527143Y36169286D01*
X59812858Y54235000D02*
X60527144Y54235000D01*
X59670001Y53806429D02*
X60170001Y55306429D01*
X60170001Y55306429D02*
X60670001Y53806429D01*
X61955715Y53806429D02*
X61098572Y53806429D01*
X61527143Y53806429D02*
X61527143Y55306429D01*
X61527143Y55306429D02*
X61384286Y55092143D01*
X61384286Y55092143D02*
X61241429Y54949286D01*
X61241429Y54949286D02*
X61098572Y54877858D01*
X62527143Y55163572D02*
X62598571Y55235000D01*
X62598571Y55235000D02*
X62741429Y55306429D01*
X62741429Y55306429D02*
X63098571Y55306429D01*
X63098571Y55306429D02*
X63241429Y55235000D01*
X63241429Y55235000D02*
X63312857Y55163572D01*
X63312857Y55163572D02*
X63384286Y55020715D01*
X63384286Y55020715D02*
X63384286Y54877858D01*
X63384286Y54877858D02*
X63312857Y54663572D01*
X63312857Y54663572D02*
X62455714Y53806429D01*
X62455714Y53806429D02*
X63384286Y53806429D01*
D11*
X5027714Y30119143D02*
X5027714Y31319143D01*
X5027714Y31319143D02*
X5484857Y31319143D01*
X5484857Y31319143D02*
X5599142Y31262000D01*
X5599142Y31262000D02*
X5656285Y31204858D01*
X5656285Y31204858D02*
X5713428Y31090572D01*
X5713428Y31090572D02*
X5713428Y30919143D01*
X5713428Y30919143D02*
X5656285Y30804858D01*
X5656285Y30804858D02*
X5599142Y30747715D01*
X5599142Y30747715D02*
X5484857Y30690572D01*
X5484857Y30690572D02*
X5027714Y30690572D01*
X6227714Y30747715D02*
X6627714Y30747715D01*
X6799142Y30119143D02*
X6227714Y30119143D01*
X6227714Y30119143D02*
X6227714Y31319143D01*
X6227714Y31319143D02*
X6799142Y31319143D01*
X7256285Y31204858D02*
X7313428Y31262000D01*
X7313428Y31262000D02*
X7427714Y31319143D01*
X7427714Y31319143D02*
X7713428Y31319143D01*
X7713428Y31319143D02*
X7827714Y31262000D01*
X7827714Y31262000D02*
X7884856Y31204858D01*
X7884856Y31204858D02*
X7941999Y31090572D01*
X7941999Y31090572D02*
X7941999Y30976286D01*
X7941999Y30976286D02*
X7884856Y30804858D01*
X7884856Y30804858D02*
X7199142Y30119143D01*
X7199142Y30119143D02*
X7941999Y30119143D01*
D12*
X89355714Y51695000D02*
X90070000Y51695000D01*
X89212857Y51266429D02*
X89712857Y52766429D01*
X89712857Y52766429D02*
X90212857Y51266429D01*
X90927142Y52123572D02*
X90784285Y52195000D01*
X90784285Y52195000D02*
X90712856Y52266429D01*
X90712856Y52266429D02*
X90641428Y52409286D01*
X90641428Y52409286D02*
X90641428Y52480715D01*
X90641428Y52480715D02*
X90712856Y52623572D01*
X90712856Y52623572D02*
X90784285Y52695000D01*
X90784285Y52695000D02*
X90927142Y52766429D01*
X90927142Y52766429D02*
X91212856Y52766429D01*
X91212856Y52766429D02*
X91355714Y52695000D01*
X91355714Y52695000D02*
X91427142Y52623572D01*
X91427142Y52623572D02*
X91498571Y52480715D01*
X91498571Y52480715D02*
X91498571Y52409286D01*
X91498571Y52409286D02*
X91427142Y52266429D01*
X91427142Y52266429D02*
X91355714Y52195000D01*
X91355714Y52195000D02*
X91212856Y52123572D01*
X91212856Y52123572D02*
X90927142Y52123572D01*
X90927142Y52123572D02*
X90784285Y52052143D01*
X90784285Y52052143D02*
X90712856Y51980715D01*
X90712856Y51980715D02*
X90641428Y51837858D01*
X90641428Y51837858D02*
X90641428Y51552143D01*
X90641428Y51552143D02*
X90712856Y51409286D01*
X90712856Y51409286D02*
X90784285Y51337858D01*
X90784285Y51337858D02*
X90927142Y51266429D01*
X90927142Y51266429D02*
X91212856Y51266429D01*
X91212856Y51266429D02*
X91355714Y51337858D01*
X91355714Y51337858D02*
X91427142Y51409286D01*
X91427142Y51409286D02*
X91498571Y51552143D01*
X91498571Y51552143D02*
X91498571Y51837858D01*
X91498571Y51837858D02*
X91427142Y51980715D01*
X91427142Y51980715D02*
X91355714Y52052143D01*
X91355714Y52052143D02*
X91212856Y52123572D01*
X89284285Y12126429D02*
X89641428Y10626429D01*
X89641428Y10626429D02*
X89927142Y11697858D01*
X89927142Y11697858D02*
X90212857Y10626429D01*
X90212857Y10626429D02*
X90570000Y12126429D01*
X91998571Y10626429D02*
X91498571Y11340715D01*
X91141428Y10626429D02*
X91141428Y12126429D01*
X91141428Y12126429D02*
X91712857Y12126429D01*
X91712857Y12126429D02*
X91855714Y12055000D01*
X91855714Y12055000D02*
X91927143Y11983572D01*
X91927143Y11983572D02*
X91998571Y11840715D01*
X91998571Y11840715D02*
X91998571Y11626429D01*
X91998571Y11626429D02*
X91927143Y11483572D01*
X91927143Y11483572D02*
X91855714Y11412143D01*
X91855714Y11412143D02*
X91712857Y11340715D01*
X91712857Y11340715D02*
X91141428Y11340715D01*
X89220000Y12655000D02*
X92134286Y12655000D01*
X61098571Y28406429D02*
X61098571Y29906429D01*
X61098571Y29906429D02*
X61455714Y29906429D01*
X61455714Y29906429D02*
X61670000Y29835000D01*
X61670000Y29835000D02*
X61812857Y29692143D01*
X61812857Y29692143D02*
X61884286Y29549286D01*
X61884286Y29549286D02*
X61955714Y29263572D01*
X61955714Y29263572D02*
X61955714Y29049286D01*
X61955714Y29049286D02*
X61884286Y28763572D01*
X61884286Y28763572D02*
X61812857Y28620715D01*
X61812857Y28620715D02*
X61670000Y28477858D01*
X61670000Y28477858D02*
X61455714Y28406429D01*
X61455714Y28406429D02*
X61098571Y28406429D01*
X62527143Y29763572D02*
X62598571Y29835000D01*
X62598571Y29835000D02*
X62741429Y29906429D01*
X62741429Y29906429D02*
X63098571Y29906429D01*
X63098571Y29906429D02*
X63241429Y29835000D01*
X63241429Y29835000D02*
X63312857Y29763572D01*
X63312857Y29763572D02*
X63384286Y29620715D01*
X63384286Y29620715D02*
X63384286Y29477858D01*
X63384286Y29477858D02*
X63312857Y29263572D01*
X63312857Y29263572D02*
X62455714Y28406429D01*
X62455714Y28406429D02*
X63384286Y28406429D01*
X59812858Y49155000D02*
X60527144Y49155000D01*
X59670001Y48726429D02*
X60170001Y50226429D01*
X60170001Y50226429D02*
X60670001Y48726429D01*
X61955715Y48726429D02*
X61098572Y48726429D01*
X61527143Y48726429D02*
X61527143Y50226429D01*
X61527143Y50226429D02*
X61384286Y50012143D01*
X61384286Y50012143D02*
X61241429Y49869286D01*
X61241429Y49869286D02*
X61098572Y49797858D01*
X63241429Y49726429D02*
X63241429Y48726429D01*
X62884286Y50297858D02*
X62527143Y49226429D01*
X62527143Y49226429D02*
X63455714Y49226429D01*
X89355714Y46615000D02*
X90070000Y46615000D01*
X89212857Y46186429D02*
X89712857Y47686429D01*
X89712857Y47686429D02*
X90212857Y46186429D01*
X91355714Y47686429D02*
X91069999Y47686429D01*
X91069999Y47686429D02*
X90927142Y47615000D01*
X90927142Y47615000D02*
X90855714Y47543572D01*
X90855714Y47543572D02*
X90712856Y47329286D01*
X90712856Y47329286D02*
X90641428Y47043572D01*
X90641428Y47043572D02*
X90641428Y46472143D01*
X90641428Y46472143D02*
X90712856Y46329286D01*
X90712856Y46329286D02*
X90784285Y46257858D01*
X90784285Y46257858D02*
X90927142Y46186429D01*
X90927142Y46186429D02*
X91212856Y46186429D01*
X91212856Y46186429D02*
X91355714Y46257858D01*
X91355714Y46257858D02*
X91427142Y46329286D01*
X91427142Y46329286D02*
X91498571Y46472143D01*
X91498571Y46472143D02*
X91498571Y46829286D01*
X91498571Y46829286D02*
X91427142Y46972143D01*
X91427142Y46972143D02*
X91355714Y47043572D01*
X91355714Y47043572D02*
X91212856Y47115000D01*
X91212856Y47115000D02*
X90927142Y47115000D01*
X90927142Y47115000D02*
X90784285Y47043572D01*
X90784285Y47043572D02*
X90712856Y46972143D01*
X90712856Y46972143D02*
X90641428Y46829286D01*
D10*
X28649666Y15502286D02*
X28649666Y14835620D01*
X28411571Y15883239D02*
X28173476Y15168953D01*
X28173476Y15168953D02*
X28792523Y15168953D01*
X29173476Y14930858D02*
X29221095Y14883239D01*
X29221095Y14883239D02*
X29173476Y14835620D01*
X29173476Y14835620D02*
X29125857Y14883239D01*
X29125857Y14883239D02*
X29173476Y14930858D01*
X29173476Y14930858D02*
X29173476Y14835620D01*
X29554428Y15835620D02*
X30221094Y15835620D01*
X30221094Y15835620D02*
X29792523Y14835620D01*
X30602047Y14835620D02*
X30602047Y15835620D01*
X30697285Y15216572D02*
X30982999Y14835620D01*
X30982999Y15502286D02*
X30602047Y15121334D01*
D12*
X89355714Y36455000D02*
X90070000Y36455000D01*
X89212857Y36026429D02*
X89712857Y37526429D01*
X89712857Y37526429D02*
X90212857Y36026429D01*
X90641428Y37383572D02*
X90712856Y37455000D01*
X90712856Y37455000D02*
X90855714Y37526429D01*
X90855714Y37526429D02*
X91212856Y37526429D01*
X91212856Y37526429D02*
X91355714Y37455000D01*
X91355714Y37455000D02*
X91427142Y37383572D01*
X91427142Y37383572D02*
X91498571Y37240715D01*
X91498571Y37240715D02*
X91498571Y37097858D01*
X91498571Y37097858D02*
X91427142Y36883572D01*
X91427142Y36883572D02*
X90569999Y36026429D01*
X90569999Y36026429D02*
X91498571Y36026429D01*
X89355714Y54235000D02*
X90070000Y54235000D01*
X89212857Y53806429D02*
X89712857Y55306429D01*
X89712857Y55306429D02*
X90212857Y53806429D01*
X90784285Y53806429D02*
X91069999Y53806429D01*
X91069999Y53806429D02*
X91212856Y53877858D01*
X91212856Y53877858D02*
X91284285Y53949286D01*
X91284285Y53949286D02*
X91427142Y54163572D01*
X91427142Y54163572D02*
X91498571Y54449286D01*
X91498571Y54449286D02*
X91498571Y55020715D01*
X91498571Y55020715D02*
X91427142Y55163572D01*
X91427142Y55163572D02*
X91355714Y55235000D01*
X91355714Y55235000D02*
X91212856Y55306429D01*
X91212856Y55306429D02*
X90927142Y55306429D01*
X90927142Y55306429D02*
X90784285Y55235000D01*
X90784285Y55235000D02*
X90712856Y55163572D01*
X90712856Y55163572D02*
X90641428Y55020715D01*
X90641428Y55020715D02*
X90641428Y54663572D01*
X90641428Y54663572D02*
X90712856Y54520715D01*
X90712856Y54520715D02*
X90784285Y54449286D01*
X90784285Y54449286D02*
X90927142Y54377858D01*
X90927142Y54377858D02*
X91212856Y54377858D01*
X91212856Y54377858D02*
X91355714Y54449286D01*
X91355714Y54449286D02*
X91427142Y54520715D01*
X91427142Y54520715D02*
X91498571Y54663572D01*
D11*
X46390857Y55797715D02*
X45190857Y55797715D01*
X45190857Y55797715D02*
X45190857Y56254858D01*
X45190857Y56254858D02*
X45248000Y56369143D01*
X45248000Y56369143D02*
X45305142Y56426286D01*
X45305142Y56426286D02*
X45419428Y56483429D01*
X45419428Y56483429D02*
X45590857Y56483429D01*
X45590857Y56483429D02*
X45705142Y56426286D01*
X45705142Y56426286D02*
X45762285Y56369143D01*
X45762285Y56369143D02*
X45819428Y56254858D01*
X45819428Y56254858D02*
X45819428Y55797715D01*
X46390857Y56997715D02*
X45190857Y56997715D01*
X45190857Y56997715D02*
X45190857Y57283429D01*
X45190857Y57283429D02*
X45248000Y57454858D01*
X45248000Y57454858D02*
X45362285Y57569143D01*
X45362285Y57569143D02*
X45476571Y57626286D01*
X45476571Y57626286D02*
X45705142Y57683429D01*
X45705142Y57683429D02*
X45876571Y57683429D01*
X45876571Y57683429D02*
X46105142Y57626286D01*
X46105142Y57626286D02*
X46219428Y57569143D01*
X46219428Y57569143D02*
X46333714Y57454858D01*
X46333714Y57454858D02*
X46390857Y57283429D01*
X46390857Y57283429D02*
X46390857Y56997715D01*
X45305142Y58140572D02*
X45248000Y58197715D01*
X45248000Y58197715D02*
X45190857Y58312000D01*
X45190857Y58312000D02*
X45190857Y58597715D01*
X45190857Y58597715D02*
X45248000Y58712000D01*
X45248000Y58712000D02*
X45305142Y58769143D01*
X45305142Y58769143D02*
X45419428Y58826286D01*
X45419428Y58826286D02*
X45533714Y58826286D01*
X45533714Y58826286D02*
X45705142Y58769143D01*
X45705142Y58769143D02*
X46390857Y58083429D01*
X46390857Y58083429D02*
X46390857Y58826286D01*
X43850857Y55797715D02*
X42650857Y55797715D01*
X42650857Y55797715D02*
X42650857Y56254858D01*
X42650857Y56254858D02*
X42708000Y56369143D01*
X42708000Y56369143D02*
X42765142Y56426286D01*
X42765142Y56426286D02*
X42879428Y56483429D01*
X42879428Y56483429D02*
X43050857Y56483429D01*
X43050857Y56483429D02*
X43165142Y56426286D01*
X43165142Y56426286D02*
X43222285Y56369143D01*
X43222285Y56369143D02*
X43279428Y56254858D01*
X43279428Y56254858D02*
X43279428Y55797715D01*
X43850857Y56997715D02*
X42650857Y56997715D01*
X42650857Y56997715D02*
X42650857Y57283429D01*
X42650857Y57283429D02*
X42708000Y57454858D01*
X42708000Y57454858D02*
X42822285Y57569143D01*
X42822285Y57569143D02*
X42936571Y57626286D01*
X42936571Y57626286D02*
X43165142Y57683429D01*
X43165142Y57683429D02*
X43336571Y57683429D01*
X43336571Y57683429D02*
X43565142Y57626286D01*
X43565142Y57626286D02*
X43679428Y57569143D01*
X43679428Y57569143D02*
X43793714Y57454858D01*
X43793714Y57454858D02*
X43850857Y57283429D01*
X43850857Y57283429D02*
X43850857Y56997715D01*
X42650857Y58083429D02*
X42650857Y58826286D01*
X42650857Y58826286D02*
X43108000Y58426286D01*
X43108000Y58426286D02*
X43108000Y58597715D01*
X43108000Y58597715D02*
X43165142Y58712000D01*
X43165142Y58712000D02*
X43222285Y58769143D01*
X43222285Y58769143D02*
X43336571Y58826286D01*
X43336571Y58826286D02*
X43622285Y58826286D01*
X43622285Y58826286D02*
X43736571Y58769143D01*
X43736571Y58769143D02*
X43793714Y58712000D01*
X43793714Y58712000D02*
X43850857Y58597715D01*
X43850857Y58597715D02*
X43850857Y58254858D01*
X43850857Y58254858D02*
X43793714Y58140572D01*
X43793714Y58140572D02*
X43736571Y58083429D01*
D12*
X57884284Y10626429D02*
X57884284Y12126429D01*
X57884284Y12126429D02*
X58384284Y11055000D01*
X58384284Y11055000D02*
X58884284Y12126429D01*
X58884284Y12126429D02*
X58884284Y10626429D01*
X60455713Y10626429D02*
X59955713Y11340715D01*
X59598570Y10626429D02*
X59598570Y12126429D01*
X59598570Y12126429D02*
X60169999Y12126429D01*
X60169999Y12126429D02*
X60312856Y12055000D01*
X60312856Y12055000D02*
X60384285Y11983572D01*
X60384285Y11983572D02*
X60455713Y11840715D01*
X60455713Y11840715D02*
X60455713Y11626429D01*
X60455713Y11626429D02*
X60384285Y11483572D01*
X60384285Y11483572D02*
X60312856Y11412143D01*
X60312856Y11412143D02*
X60169999Y11340715D01*
X60169999Y11340715D02*
X59598570Y11340715D01*
X61098570Y11412143D02*
X61598570Y11412143D01*
X61812856Y10626429D02*
X61098570Y10626429D01*
X61098570Y10626429D02*
X61098570Y12126429D01*
X61098570Y12126429D02*
X61812856Y12126429D01*
X63455713Y10483572D02*
X63312856Y10555000D01*
X63312856Y10555000D02*
X63169999Y10697858D01*
X63169999Y10697858D02*
X62955713Y10912143D01*
X62955713Y10912143D02*
X62812856Y10983572D01*
X62812856Y10983572D02*
X62669999Y10983572D01*
X62741428Y10626429D02*
X62598571Y10697858D01*
X62598571Y10697858D02*
X62455713Y10840715D01*
X62455713Y10840715D02*
X62384285Y11126429D01*
X62384285Y11126429D02*
X62384285Y11626429D01*
X62384285Y11626429D02*
X62455713Y11912143D01*
X62455713Y11912143D02*
X62598571Y12055000D01*
X62598571Y12055000D02*
X62741428Y12126429D01*
X62741428Y12126429D02*
X63027142Y12126429D01*
X63027142Y12126429D02*
X63169999Y12055000D01*
X63169999Y12055000D02*
X63312856Y11912143D01*
X63312856Y11912143D02*
X63384285Y11626429D01*
X63384285Y11626429D02*
X63384285Y11126429D01*
X63384285Y11126429D02*
X63312856Y10840715D01*
X63312856Y10840715D02*
X63169999Y10697858D01*
X63169999Y10697858D02*
X63027142Y10626429D01*
X63027142Y10626429D02*
X62741428Y10626429D01*
X57677142Y12655000D02*
X63520000Y12655000D01*
X89355714Y56775000D02*
X90070000Y56775000D01*
X89212857Y56346429D02*
X89712857Y57846429D01*
X89712857Y57846429D02*
X90212857Y56346429D01*
X91498571Y56346429D02*
X90641428Y56346429D01*
X91069999Y56346429D02*
X91069999Y57846429D01*
X91069999Y57846429D02*
X90927142Y57632143D01*
X90927142Y57632143D02*
X90784285Y57489286D01*
X90784285Y57489286D02*
X90641428Y57417858D01*
X92427142Y57846429D02*
X92569999Y57846429D01*
X92569999Y57846429D02*
X92712856Y57775000D01*
X92712856Y57775000D02*
X92784285Y57703572D01*
X92784285Y57703572D02*
X92855713Y57560715D01*
X92855713Y57560715D02*
X92927142Y57275000D01*
X92927142Y57275000D02*
X92927142Y56917858D01*
X92927142Y56917858D02*
X92855713Y56632143D01*
X92855713Y56632143D02*
X92784285Y56489286D01*
X92784285Y56489286D02*
X92712856Y56417858D01*
X92712856Y56417858D02*
X92569999Y56346429D01*
X92569999Y56346429D02*
X92427142Y56346429D01*
X92427142Y56346429D02*
X92284285Y56417858D01*
X92284285Y56417858D02*
X92212856Y56489286D01*
X92212856Y56489286D02*
X92141427Y56632143D01*
X92141427Y56632143D02*
X92069999Y56917858D01*
X92069999Y56917858D02*
X92069999Y57275000D01*
X92069999Y57275000D02*
X92141427Y57560715D01*
X92141427Y57560715D02*
X92212856Y57703572D01*
X92212856Y57703572D02*
X92284285Y57775000D01*
X92284285Y57775000D02*
X92427142Y57846429D01*
D11*
X41310857Y55797715D02*
X40110857Y55797715D01*
X40110857Y55797715D02*
X40110857Y56254858D01*
X40110857Y56254858D02*
X40168000Y56369143D01*
X40168000Y56369143D02*
X40225142Y56426286D01*
X40225142Y56426286D02*
X40339428Y56483429D01*
X40339428Y56483429D02*
X40510857Y56483429D01*
X40510857Y56483429D02*
X40625142Y56426286D01*
X40625142Y56426286D02*
X40682285Y56369143D01*
X40682285Y56369143D02*
X40739428Y56254858D01*
X40739428Y56254858D02*
X40739428Y55797715D01*
X41310857Y56997715D02*
X40110857Y56997715D01*
X40110857Y56997715D02*
X40110857Y57283429D01*
X40110857Y57283429D02*
X40168000Y57454858D01*
X40168000Y57454858D02*
X40282285Y57569143D01*
X40282285Y57569143D02*
X40396571Y57626286D01*
X40396571Y57626286D02*
X40625142Y57683429D01*
X40625142Y57683429D02*
X40796571Y57683429D01*
X40796571Y57683429D02*
X41025142Y57626286D01*
X41025142Y57626286D02*
X41139428Y57569143D01*
X41139428Y57569143D02*
X41253714Y57454858D01*
X41253714Y57454858D02*
X41310857Y57283429D01*
X41310857Y57283429D02*
X41310857Y56997715D01*
X40510857Y58712000D02*
X41310857Y58712000D01*
X40053714Y58426286D02*
X40910857Y58140572D01*
X40910857Y58140572D02*
X40910857Y58883429D01*
D12*
X90212857Y29835000D02*
X90070000Y29906429D01*
X90070000Y29906429D02*
X89855714Y29906429D01*
X89855714Y29906429D02*
X89641428Y29835000D01*
X89641428Y29835000D02*
X89498571Y29692143D01*
X89498571Y29692143D02*
X89427142Y29549286D01*
X89427142Y29549286D02*
X89355714Y29263572D01*
X89355714Y29263572D02*
X89355714Y29049286D01*
X89355714Y29049286D02*
X89427142Y28763572D01*
X89427142Y28763572D02*
X89498571Y28620715D01*
X89498571Y28620715D02*
X89641428Y28477858D01*
X89641428Y28477858D02*
X89855714Y28406429D01*
X89855714Y28406429D02*
X89998571Y28406429D01*
X89998571Y28406429D02*
X90212857Y28477858D01*
X90212857Y28477858D02*
X90284285Y28549286D01*
X90284285Y28549286D02*
X90284285Y29049286D01*
X90284285Y29049286D02*
X89998571Y29049286D01*
X90927142Y28406429D02*
X90927142Y29906429D01*
X90927142Y29906429D02*
X91784285Y28406429D01*
X91784285Y28406429D02*
X91784285Y29906429D01*
X92498571Y28406429D02*
X92498571Y29906429D01*
X92498571Y29906429D02*
X92855714Y29906429D01*
X92855714Y29906429D02*
X93070000Y29835000D01*
X93070000Y29835000D02*
X93212857Y29692143D01*
X93212857Y29692143D02*
X93284286Y29549286D01*
X93284286Y29549286D02*
X93355714Y29263572D01*
X93355714Y29263572D02*
X93355714Y29049286D01*
X93355714Y29049286D02*
X93284286Y28763572D01*
X93284286Y28763572D02*
X93212857Y28620715D01*
X93212857Y28620715D02*
X93070000Y28477858D01*
X93070000Y28477858D02*
X92855714Y28406429D01*
X92855714Y28406429D02*
X92498571Y28406429D01*
X61098571Y20786429D02*
X61098571Y22286429D01*
X61098571Y22286429D02*
X61455714Y22286429D01*
X61455714Y22286429D02*
X61670000Y22215000D01*
X61670000Y22215000D02*
X61812857Y22072143D01*
X61812857Y22072143D02*
X61884286Y21929286D01*
X61884286Y21929286D02*
X61955714Y21643572D01*
X61955714Y21643572D02*
X61955714Y21429286D01*
X61955714Y21429286D02*
X61884286Y21143572D01*
X61884286Y21143572D02*
X61812857Y21000715D01*
X61812857Y21000715D02*
X61670000Y20857858D01*
X61670000Y20857858D02*
X61455714Y20786429D01*
X61455714Y20786429D02*
X61098571Y20786429D01*
X63384286Y20786429D02*
X62527143Y20786429D01*
X62955714Y20786429D02*
X62955714Y22286429D01*
X62955714Y22286429D02*
X62812857Y22072143D01*
X62812857Y22072143D02*
X62670000Y21929286D01*
X62670000Y21929286D02*
X62527143Y21857858D01*
X90284285Y8086429D02*
X89784285Y8800715D01*
X89427142Y8086429D02*
X89427142Y9586429D01*
X89427142Y9586429D02*
X89998571Y9586429D01*
X89998571Y9586429D02*
X90141428Y9515000D01*
X90141428Y9515000D02*
X90212857Y9443572D01*
X90212857Y9443572D02*
X90284285Y9300715D01*
X90284285Y9300715D02*
X90284285Y9086429D01*
X90284285Y9086429D02*
X90212857Y8943572D01*
X90212857Y8943572D02*
X90141428Y8872143D01*
X90141428Y8872143D02*
X89998571Y8800715D01*
X89998571Y8800715D02*
X89427142Y8800715D01*
X90927142Y8086429D02*
X90927142Y9586429D01*
X90927142Y9586429D02*
X91284285Y9586429D01*
X91284285Y9586429D02*
X91498571Y9515000D01*
X91498571Y9515000D02*
X91641428Y9372143D01*
X91641428Y9372143D02*
X91712857Y9229286D01*
X91712857Y9229286D02*
X91784285Y8943572D01*
X91784285Y8943572D02*
X91784285Y8729286D01*
X91784285Y8729286D02*
X91712857Y8443572D01*
X91712857Y8443572D02*
X91641428Y8300715D01*
X91641428Y8300715D02*
X91498571Y8157858D01*
X91498571Y8157858D02*
X91284285Y8086429D01*
X91284285Y8086429D02*
X90927142Y8086429D01*
X89220000Y10115000D02*
X91920000Y10115000D01*
D11*
X51470857Y55797715D02*
X50270857Y55797715D01*
X50270857Y55797715D02*
X50270857Y56254858D01*
X50270857Y56254858D02*
X50328000Y56369143D01*
X50328000Y56369143D02*
X50385142Y56426286D01*
X50385142Y56426286D02*
X50499428Y56483429D01*
X50499428Y56483429D02*
X50670857Y56483429D01*
X50670857Y56483429D02*
X50785142Y56426286D01*
X50785142Y56426286D02*
X50842285Y56369143D01*
X50842285Y56369143D02*
X50899428Y56254858D01*
X50899428Y56254858D02*
X50899428Y55797715D01*
X51470857Y56997715D02*
X50270857Y56997715D01*
X50270857Y56997715D02*
X50270857Y57283429D01*
X50270857Y57283429D02*
X50328000Y57454858D01*
X50328000Y57454858D02*
X50442285Y57569143D01*
X50442285Y57569143D02*
X50556571Y57626286D01*
X50556571Y57626286D02*
X50785142Y57683429D01*
X50785142Y57683429D02*
X50956571Y57683429D01*
X50956571Y57683429D02*
X51185142Y57626286D01*
X51185142Y57626286D02*
X51299428Y57569143D01*
X51299428Y57569143D02*
X51413714Y57454858D01*
X51413714Y57454858D02*
X51470857Y57283429D01*
X51470857Y57283429D02*
X51470857Y56997715D01*
X50270857Y58426286D02*
X50270857Y58540572D01*
X50270857Y58540572D02*
X50328000Y58654858D01*
X50328000Y58654858D02*
X50385142Y58712000D01*
X50385142Y58712000D02*
X50499428Y58769143D01*
X50499428Y58769143D02*
X50728000Y58826286D01*
X50728000Y58826286D02*
X51013714Y58826286D01*
X51013714Y58826286D02*
X51242285Y58769143D01*
X51242285Y58769143D02*
X51356571Y58712000D01*
X51356571Y58712000D02*
X51413714Y58654858D01*
X51413714Y58654858D02*
X51470857Y58540572D01*
X51470857Y58540572D02*
X51470857Y58426286D01*
X51470857Y58426286D02*
X51413714Y58312000D01*
X51413714Y58312000D02*
X51356571Y58254858D01*
X51356571Y58254858D02*
X51242285Y58197715D01*
X51242285Y58197715D02*
X51013714Y58140572D01*
X51013714Y58140572D02*
X50728000Y58140572D01*
X50728000Y58140572D02*
X50499428Y58197715D01*
X50499428Y58197715D02*
X50385142Y58254858D01*
X50385142Y58254858D02*
X50328000Y58312000D01*
X50328000Y58312000D02*
X50270857Y58426286D01*
D12*
X59812858Y56775000D02*
X60527144Y56775000D01*
X59670001Y56346429D02*
X60170001Y57846429D01*
X60170001Y57846429D02*
X60670001Y56346429D01*
X61955715Y56346429D02*
X61098572Y56346429D01*
X61527143Y56346429D02*
X61527143Y57846429D01*
X61527143Y57846429D02*
X61384286Y57632143D01*
X61384286Y57632143D02*
X61241429Y57489286D01*
X61241429Y57489286D02*
X61098572Y57417858D01*
X63384286Y56346429D02*
X62527143Y56346429D01*
X62955714Y56346429D02*
X62955714Y57846429D01*
X62955714Y57846429D02*
X62812857Y57632143D01*
X62812857Y57632143D02*
X62670000Y57489286D01*
X62670000Y57489286D02*
X62527143Y57417858D01*
X61098571Y33486429D02*
X61098571Y34986429D01*
X61098571Y34986429D02*
X61455714Y34986429D01*
X61455714Y34986429D02*
X61670000Y34915000D01*
X61670000Y34915000D02*
X61812857Y34772143D01*
X61812857Y34772143D02*
X61884286Y34629286D01*
X61884286Y34629286D02*
X61955714Y34343572D01*
X61955714Y34343572D02*
X61955714Y34129286D01*
X61955714Y34129286D02*
X61884286Y33843572D01*
X61884286Y33843572D02*
X61812857Y33700715D01*
X61812857Y33700715D02*
X61670000Y33557858D01*
X61670000Y33557858D02*
X61455714Y33486429D01*
X61455714Y33486429D02*
X61098571Y33486429D01*
X63241429Y34986429D02*
X62955714Y34986429D01*
X62955714Y34986429D02*
X62812857Y34915000D01*
X62812857Y34915000D02*
X62741429Y34843572D01*
X62741429Y34843572D02*
X62598571Y34629286D01*
X62598571Y34629286D02*
X62527143Y34343572D01*
X62527143Y34343572D02*
X62527143Y33772143D01*
X62527143Y33772143D02*
X62598571Y33629286D01*
X62598571Y33629286D02*
X62670000Y33557858D01*
X62670000Y33557858D02*
X62812857Y33486429D01*
X62812857Y33486429D02*
X63098571Y33486429D01*
X63098571Y33486429D02*
X63241429Y33557858D01*
X63241429Y33557858D02*
X63312857Y33629286D01*
X63312857Y33629286D02*
X63384286Y33772143D01*
X63384286Y33772143D02*
X63384286Y34129286D01*
X63384286Y34129286D02*
X63312857Y34272143D01*
X63312857Y34272143D02*
X63241429Y34343572D01*
X63241429Y34343572D02*
X63098571Y34415000D01*
X63098571Y34415000D02*
X62812857Y34415000D01*
X62812857Y34415000D02*
X62670000Y34343572D01*
X62670000Y34343572D02*
X62598571Y34272143D01*
X62598571Y34272143D02*
X62527143Y34129286D01*
D11*
X5027714Y22499143D02*
X5027714Y23699143D01*
X5027714Y23699143D02*
X5484857Y23699143D01*
X5484857Y23699143D02*
X5599142Y23642000D01*
X5599142Y23642000D02*
X5656285Y23584858D01*
X5656285Y23584858D02*
X5713428Y23470572D01*
X5713428Y23470572D02*
X5713428Y23299143D01*
X5713428Y23299143D02*
X5656285Y23184858D01*
X5656285Y23184858D02*
X5599142Y23127715D01*
X5599142Y23127715D02*
X5484857Y23070572D01*
X5484857Y23070572D02*
X5027714Y23070572D01*
X6227714Y23127715D02*
X6627714Y23127715D01*
X6799142Y22499143D02*
X6227714Y22499143D01*
X6227714Y22499143D02*
X6227714Y23699143D01*
X6227714Y23699143D02*
X6799142Y23699143D01*
X7884856Y23699143D02*
X7313428Y23699143D01*
X7313428Y23699143D02*
X7256285Y23127715D01*
X7256285Y23127715D02*
X7313428Y23184858D01*
X7313428Y23184858D02*
X7427714Y23242000D01*
X7427714Y23242000D02*
X7713428Y23242000D01*
X7713428Y23242000D02*
X7827714Y23184858D01*
X7827714Y23184858D02*
X7884856Y23127715D01*
X7884856Y23127715D02*
X7941999Y23013429D01*
X7941999Y23013429D02*
X7941999Y22727715D01*
X7941999Y22727715D02*
X7884856Y22613429D01*
X7884856Y22613429D02*
X7827714Y22556286D01*
X7827714Y22556286D02*
X7713428Y22499143D01*
X7713428Y22499143D02*
X7427714Y22499143D01*
X7427714Y22499143D02*
X7313428Y22556286D01*
X7313428Y22556286D02*
X7256285Y22613429D01*
D12*
X90284285Y20786429D02*
X89784285Y21500715D01*
X89427142Y20786429D02*
X89427142Y22286429D01*
X89427142Y22286429D02*
X89998571Y22286429D01*
X89998571Y22286429D02*
X90141428Y22215000D01*
X90141428Y22215000D02*
X90212857Y22143572D01*
X90212857Y22143572D02*
X90284285Y22000715D01*
X90284285Y22000715D02*
X90284285Y21786429D01*
X90284285Y21786429D02*
X90212857Y21643572D01*
X90212857Y21643572D02*
X90141428Y21572143D01*
X90141428Y21572143D02*
X89998571Y21500715D01*
X89998571Y21500715D02*
X89427142Y21500715D01*
X90927142Y21572143D02*
X91427142Y21572143D01*
X91641428Y20786429D02*
X90927142Y20786429D01*
X90927142Y20786429D02*
X90927142Y22286429D01*
X90927142Y22286429D02*
X91641428Y22286429D01*
X92212857Y20857858D02*
X92427143Y20786429D01*
X92427143Y20786429D02*
X92784285Y20786429D01*
X92784285Y20786429D02*
X92927143Y20857858D01*
X92927143Y20857858D02*
X92998571Y20929286D01*
X92998571Y20929286D02*
X93070000Y21072143D01*
X93070000Y21072143D02*
X93070000Y21215000D01*
X93070000Y21215000D02*
X92998571Y21357858D01*
X92998571Y21357858D02*
X92927143Y21429286D01*
X92927143Y21429286D02*
X92784285Y21500715D01*
X92784285Y21500715D02*
X92498571Y21572143D01*
X92498571Y21572143D02*
X92355714Y21643572D01*
X92355714Y21643572D02*
X92284285Y21715000D01*
X92284285Y21715000D02*
X92212857Y21857858D01*
X92212857Y21857858D02*
X92212857Y22000715D01*
X92212857Y22000715D02*
X92284285Y22143572D01*
X92284285Y22143572D02*
X92355714Y22215000D01*
X92355714Y22215000D02*
X92498571Y22286429D01*
X92498571Y22286429D02*
X92855714Y22286429D01*
X92855714Y22286429D02*
X93070000Y22215000D01*
X93712856Y21572143D02*
X94212856Y21572143D01*
X94427142Y20786429D02*
X93712856Y20786429D01*
X93712856Y20786429D02*
X93712856Y22286429D01*
X93712856Y22286429D02*
X94427142Y22286429D01*
X94855714Y22286429D02*
X95712857Y22286429D01*
X95284285Y20786429D02*
X95284285Y22286429D01*
X89220000Y22815000D02*
X95705714Y22815000D01*
D11*
X38770857Y55797715D02*
X37570857Y55797715D01*
X37570857Y55797715D02*
X37570857Y56254858D01*
X37570857Y56254858D02*
X37628000Y56369143D01*
X37628000Y56369143D02*
X37685142Y56426286D01*
X37685142Y56426286D02*
X37799428Y56483429D01*
X37799428Y56483429D02*
X37970857Y56483429D01*
X37970857Y56483429D02*
X38085142Y56426286D01*
X38085142Y56426286D02*
X38142285Y56369143D01*
X38142285Y56369143D02*
X38199428Y56254858D01*
X38199428Y56254858D02*
X38199428Y55797715D01*
X38770857Y56997715D02*
X37570857Y56997715D01*
X37570857Y56997715D02*
X37570857Y57283429D01*
X37570857Y57283429D02*
X37628000Y57454858D01*
X37628000Y57454858D02*
X37742285Y57569143D01*
X37742285Y57569143D02*
X37856571Y57626286D01*
X37856571Y57626286D02*
X38085142Y57683429D01*
X38085142Y57683429D02*
X38256571Y57683429D01*
X38256571Y57683429D02*
X38485142Y57626286D01*
X38485142Y57626286D02*
X38599428Y57569143D01*
X38599428Y57569143D02*
X38713714Y57454858D01*
X38713714Y57454858D02*
X38770857Y57283429D01*
X38770857Y57283429D02*
X38770857Y56997715D01*
X37570857Y58769143D02*
X37570857Y58197715D01*
X37570857Y58197715D02*
X38142285Y58140572D01*
X38142285Y58140572D02*
X38085142Y58197715D01*
X38085142Y58197715D02*
X38028000Y58312000D01*
X38028000Y58312000D02*
X38028000Y58597715D01*
X38028000Y58597715D02*
X38085142Y58712000D01*
X38085142Y58712000D02*
X38142285Y58769143D01*
X38142285Y58769143D02*
X38256571Y58826286D01*
X38256571Y58826286D02*
X38542285Y58826286D01*
X38542285Y58826286D02*
X38656571Y58769143D01*
X38656571Y58769143D02*
X38713714Y58712000D01*
X38713714Y58712000D02*
X38770857Y58597715D01*
X38770857Y58597715D02*
X38770857Y58312000D01*
X38770857Y58312000D02*
X38713714Y58197715D01*
X38713714Y58197715D02*
X38656571Y58140572D01*
X5027714Y32659143D02*
X5027714Y33859143D01*
X5027714Y33859143D02*
X5484857Y33859143D01*
X5484857Y33859143D02*
X5599142Y33802000D01*
X5599142Y33802000D02*
X5656285Y33744858D01*
X5656285Y33744858D02*
X5713428Y33630572D01*
X5713428Y33630572D02*
X5713428Y33459143D01*
X5713428Y33459143D02*
X5656285Y33344858D01*
X5656285Y33344858D02*
X5599142Y33287715D01*
X5599142Y33287715D02*
X5484857Y33230572D01*
X5484857Y33230572D02*
X5027714Y33230572D01*
X6227714Y33287715D02*
X6627714Y33287715D01*
X6799142Y32659143D02*
X6227714Y32659143D01*
X6227714Y32659143D02*
X6227714Y33859143D01*
X6227714Y33859143D02*
X6799142Y33859143D01*
X7941999Y32659143D02*
X7256285Y32659143D01*
X7599142Y32659143D02*
X7599142Y33859143D01*
X7599142Y33859143D02*
X7484856Y33687715D01*
X7484856Y33687715D02*
X7370571Y33573429D01*
X7370571Y33573429D02*
X7256285Y33516286D01*
X5027714Y25039143D02*
X5027714Y26239143D01*
X5027714Y26239143D02*
X5484857Y26239143D01*
X5484857Y26239143D02*
X5599142Y26182000D01*
X5599142Y26182000D02*
X5656285Y26124858D01*
X5656285Y26124858D02*
X5713428Y26010572D01*
X5713428Y26010572D02*
X5713428Y25839143D01*
X5713428Y25839143D02*
X5656285Y25724858D01*
X5656285Y25724858D02*
X5599142Y25667715D01*
X5599142Y25667715D02*
X5484857Y25610572D01*
X5484857Y25610572D02*
X5027714Y25610572D01*
X6227714Y25667715D02*
X6627714Y25667715D01*
X6799142Y25039143D02*
X6227714Y25039143D01*
X6227714Y25039143D02*
X6227714Y26239143D01*
X6227714Y26239143D02*
X6799142Y26239143D01*
X7827714Y25839143D02*
X7827714Y25039143D01*
X7541999Y26296286D02*
X7256285Y25439143D01*
X7256285Y25439143D02*
X7999142Y25439143D01*
D12*
X89355714Y44075000D02*
X90070000Y44075000D01*
X89212857Y43646429D02*
X89712857Y45146429D01*
X89712857Y45146429D02*
X90212857Y43646429D01*
X91427142Y45146429D02*
X90712856Y45146429D01*
X90712856Y45146429D02*
X90641428Y44432143D01*
X90641428Y44432143D02*
X90712856Y44503572D01*
X90712856Y44503572D02*
X90855714Y44575000D01*
X90855714Y44575000D02*
X91212856Y44575000D01*
X91212856Y44575000D02*
X91355714Y44503572D01*
X91355714Y44503572D02*
X91427142Y44432143D01*
X91427142Y44432143D02*
X91498571Y44289286D01*
X91498571Y44289286D02*
X91498571Y43932143D01*
X91498571Y43932143D02*
X91427142Y43789286D01*
X91427142Y43789286D02*
X91355714Y43717858D01*
X91355714Y43717858D02*
X91212856Y43646429D01*
X91212856Y43646429D02*
X90855714Y43646429D01*
X90855714Y43646429D02*
X90712856Y43717858D01*
X90712856Y43717858D02*
X90641428Y43789286D01*
X60669999Y43789286D02*
X60598571Y43717858D01*
X60598571Y43717858D02*
X60384285Y43646429D01*
X60384285Y43646429D02*
X60241428Y43646429D01*
X60241428Y43646429D02*
X60027142Y43717858D01*
X60027142Y43717858D02*
X59884285Y43860715D01*
X59884285Y43860715D02*
X59812856Y44003572D01*
X59812856Y44003572D02*
X59741428Y44289286D01*
X59741428Y44289286D02*
X59741428Y44503572D01*
X59741428Y44503572D02*
X59812856Y44789286D01*
X59812856Y44789286D02*
X59884285Y44932143D01*
X59884285Y44932143D02*
X60027142Y45075000D01*
X60027142Y45075000D02*
X60241428Y45146429D01*
X60241428Y45146429D02*
X60384285Y45146429D01*
X60384285Y45146429D02*
X60598571Y45075000D01*
X60598571Y45075000D02*
X60669999Y45003572D01*
X62027142Y43646429D02*
X61312856Y43646429D01*
X61312856Y43646429D02*
X61312856Y45146429D01*
X62527142Y43646429D02*
X62527142Y45146429D01*
X63384285Y43646429D02*
X62741428Y44503572D01*
X63384285Y45146429D02*
X62527142Y44289286D01*
D11*
X14640857Y55797715D02*
X13440857Y55797715D01*
X13440857Y55797715D02*
X13440857Y56254858D01*
X13440857Y56254858D02*
X13498000Y56369143D01*
X13498000Y56369143D02*
X13555142Y56426286D01*
X13555142Y56426286D02*
X13669428Y56483429D01*
X13669428Y56483429D02*
X13840857Y56483429D01*
X13840857Y56483429D02*
X13955142Y56426286D01*
X13955142Y56426286D02*
X14012285Y56369143D01*
X14012285Y56369143D02*
X14069428Y56254858D01*
X14069428Y56254858D02*
X14069428Y55797715D01*
X14298000Y56940572D02*
X14298000Y57512000D01*
X14640857Y56826286D02*
X13440857Y57226286D01*
X13440857Y57226286D02*
X14640857Y57626286D01*
X13555142Y57969143D02*
X13498000Y58026286D01*
X13498000Y58026286D02*
X13440857Y58140571D01*
X13440857Y58140571D02*
X13440857Y58426286D01*
X13440857Y58426286D02*
X13498000Y58540571D01*
X13498000Y58540571D02*
X13555142Y58597714D01*
X13555142Y58597714D02*
X13669428Y58654857D01*
X13669428Y58654857D02*
X13783714Y58654857D01*
X13783714Y58654857D02*
X13955142Y58597714D01*
X13955142Y58597714D02*
X14640857Y57912000D01*
X14640857Y57912000D02*
X14640857Y58654857D01*
X35088000Y56426286D02*
X35030857Y56312000D01*
X35030857Y56312000D02*
X35030857Y56140572D01*
X35030857Y56140572D02*
X35088000Y55969143D01*
X35088000Y55969143D02*
X35202285Y55854858D01*
X35202285Y55854858D02*
X35316571Y55797715D01*
X35316571Y55797715D02*
X35545142Y55740572D01*
X35545142Y55740572D02*
X35716571Y55740572D01*
X35716571Y55740572D02*
X35945142Y55797715D01*
X35945142Y55797715D02*
X36059428Y55854858D01*
X36059428Y55854858D02*
X36173714Y55969143D01*
X36173714Y55969143D02*
X36230857Y56140572D01*
X36230857Y56140572D02*
X36230857Y56254858D01*
X36230857Y56254858D02*
X36173714Y56426286D01*
X36173714Y56426286D02*
X36116571Y56483429D01*
X36116571Y56483429D02*
X35716571Y56483429D01*
X35716571Y56483429D02*
X35716571Y56254858D01*
X36230857Y56997715D02*
X35030857Y56997715D01*
X35030857Y56997715D02*
X36230857Y57683429D01*
X36230857Y57683429D02*
X35030857Y57683429D01*
X36230857Y58254858D02*
X35030857Y58254858D01*
X35030857Y58254858D02*
X35030857Y58540572D01*
X35030857Y58540572D02*
X35088000Y58712001D01*
X35088000Y58712001D02*
X35202285Y58826286D01*
X35202285Y58826286D02*
X35316571Y58883429D01*
X35316571Y58883429D02*
X35545142Y58940572D01*
X35545142Y58940572D02*
X35716571Y58940572D01*
X35716571Y58940572D02*
X35945142Y58883429D01*
X35945142Y58883429D02*
X36059428Y58826286D01*
X36059428Y58826286D02*
X36173714Y58712001D01*
X36173714Y58712001D02*
X36230857Y58540572D01*
X36230857Y58540572D02*
X36230857Y58254858D01*
X5027714Y35199143D02*
X5027714Y36399143D01*
X5027714Y36399143D02*
X5484857Y36399143D01*
X5484857Y36399143D02*
X5599142Y36342000D01*
X5599142Y36342000D02*
X5656285Y36284858D01*
X5656285Y36284858D02*
X5713428Y36170572D01*
X5713428Y36170572D02*
X5713428Y35999143D01*
X5713428Y35999143D02*
X5656285Y35884858D01*
X5656285Y35884858D02*
X5599142Y35827715D01*
X5599142Y35827715D02*
X5484857Y35770572D01*
X5484857Y35770572D02*
X5027714Y35770572D01*
X6227714Y35827715D02*
X6627714Y35827715D01*
X6799142Y35199143D02*
X6227714Y35199143D01*
X6227714Y35199143D02*
X6227714Y36399143D01*
X6227714Y36399143D02*
X6799142Y36399143D01*
X7541999Y36399143D02*
X7656285Y36399143D01*
X7656285Y36399143D02*
X7770571Y36342000D01*
X7770571Y36342000D02*
X7827714Y36284858D01*
X7827714Y36284858D02*
X7884856Y36170572D01*
X7884856Y36170572D02*
X7941999Y35942000D01*
X7941999Y35942000D02*
X7941999Y35656286D01*
X7941999Y35656286D02*
X7884856Y35427715D01*
X7884856Y35427715D02*
X7827714Y35313429D01*
X7827714Y35313429D02*
X7770571Y35256286D01*
X7770571Y35256286D02*
X7656285Y35199143D01*
X7656285Y35199143D02*
X7541999Y35199143D01*
X7541999Y35199143D02*
X7427714Y35256286D01*
X7427714Y35256286D02*
X7370571Y35313429D01*
X7370571Y35313429D02*
X7313428Y35427715D01*
X7313428Y35427715D02*
X7256285Y35656286D01*
X7256285Y35656286D02*
X7256285Y35942000D01*
X7256285Y35942000D02*
X7313428Y36170572D01*
X7313428Y36170572D02*
X7370571Y36284858D01*
X7370571Y36284858D02*
X7427714Y36342000D01*
X7427714Y36342000D02*
X7541999Y36399143D01*
D12*
X58669998Y8086429D02*
X58669998Y9586429D01*
X59669999Y9586429D02*
X59955713Y9586429D01*
X59955713Y9586429D02*
X60098570Y9515000D01*
X60098570Y9515000D02*
X60241427Y9372143D01*
X60241427Y9372143D02*
X60312856Y9086429D01*
X60312856Y9086429D02*
X60312856Y8586429D01*
X60312856Y8586429D02*
X60241427Y8300715D01*
X60241427Y8300715D02*
X60098570Y8157858D01*
X60098570Y8157858D02*
X59955713Y8086429D01*
X59955713Y8086429D02*
X59669999Y8086429D01*
X59669999Y8086429D02*
X59527142Y8157858D01*
X59527142Y8157858D02*
X59384284Y8300715D01*
X59384284Y8300715D02*
X59312856Y8586429D01*
X59312856Y8586429D02*
X59312856Y9086429D01*
X59312856Y9086429D02*
X59384284Y9372143D01*
X59384284Y9372143D02*
X59527142Y9515000D01*
X59527142Y9515000D02*
X59669999Y9586429D01*
X61812856Y8086429D02*
X61312856Y8800715D01*
X60955713Y8086429D02*
X60955713Y9586429D01*
X60955713Y9586429D02*
X61527142Y9586429D01*
X61527142Y9586429D02*
X61669999Y9515000D01*
X61669999Y9515000D02*
X61741428Y9443572D01*
X61741428Y9443572D02*
X61812856Y9300715D01*
X61812856Y9300715D02*
X61812856Y9086429D01*
X61812856Y9086429D02*
X61741428Y8943572D01*
X61741428Y8943572D02*
X61669999Y8872143D01*
X61669999Y8872143D02*
X61527142Y8800715D01*
X61527142Y8800715D02*
X60955713Y8800715D01*
X63455713Y7943572D02*
X63312856Y8015000D01*
X63312856Y8015000D02*
X63169999Y8157858D01*
X63169999Y8157858D02*
X62955713Y8372143D01*
X62955713Y8372143D02*
X62812856Y8443572D01*
X62812856Y8443572D02*
X62669999Y8443572D01*
X62741428Y8086429D02*
X62598571Y8157858D01*
X62598571Y8157858D02*
X62455713Y8300715D01*
X62455713Y8300715D02*
X62384285Y8586429D01*
X62384285Y8586429D02*
X62384285Y9086429D01*
X62384285Y9086429D02*
X62455713Y9372143D01*
X62455713Y9372143D02*
X62598571Y9515000D01*
X62598571Y9515000D02*
X62741428Y9586429D01*
X62741428Y9586429D02*
X63027142Y9586429D01*
X63027142Y9586429D02*
X63169999Y9515000D01*
X63169999Y9515000D02*
X63312856Y9372143D01*
X63312856Y9372143D02*
X63384285Y9086429D01*
X63384285Y9086429D02*
X63384285Y8586429D01*
X63384285Y8586429D02*
X63312856Y8300715D01*
X63312856Y8300715D02*
X63169999Y8157858D01*
X63169999Y8157858D02*
X63027142Y8086429D01*
X63027142Y8086429D02*
X62741428Y8086429D01*
X58462856Y10115000D02*
X63520000Y10115000D01*
X89355714Y33915000D02*
X90070000Y33915000D01*
X89212857Y33486429D02*
X89712857Y34986429D01*
X89712857Y34986429D02*
X90212857Y33486429D01*
X91498571Y33486429D02*
X90641428Y33486429D01*
X91069999Y33486429D02*
X91069999Y34986429D01*
X91069999Y34986429D02*
X90927142Y34772143D01*
X90927142Y34772143D02*
X90784285Y34629286D01*
X90784285Y34629286D02*
X90641428Y34557858D01*
X89355714Y38995000D02*
X90070000Y38995000D01*
X89212857Y38566429D02*
X89712857Y40066429D01*
X89712857Y40066429D02*
X90212857Y38566429D01*
X90569999Y40066429D02*
X91498571Y40066429D01*
X91498571Y40066429D02*
X90998571Y39495000D01*
X90998571Y39495000D02*
X91212856Y39495000D01*
X91212856Y39495000D02*
X91355714Y39423572D01*
X91355714Y39423572D02*
X91427142Y39352143D01*
X91427142Y39352143D02*
X91498571Y39209286D01*
X91498571Y39209286D02*
X91498571Y38852143D01*
X91498571Y38852143D02*
X91427142Y38709286D01*
X91427142Y38709286D02*
X91355714Y38637858D01*
X91355714Y38637858D02*
X91212856Y38566429D01*
X91212856Y38566429D02*
X90784285Y38566429D01*
X90784285Y38566429D02*
X90641428Y38637858D01*
X90641428Y38637858D02*
X90569999Y38709286D01*
X61098571Y38566429D02*
X61098571Y40066429D01*
X61098571Y40066429D02*
X61455714Y40066429D01*
X61455714Y40066429D02*
X61670000Y39995000D01*
X61670000Y39995000D02*
X61812857Y39852143D01*
X61812857Y39852143D02*
X61884286Y39709286D01*
X61884286Y39709286D02*
X61955714Y39423572D01*
X61955714Y39423572D02*
X61955714Y39209286D01*
X61955714Y39209286D02*
X61884286Y38923572D01*
X61884286Y38923572D02*
X61812857Y38780715D01*
X61812857Y38780715D02*
X61670000Y38637858D01*
X61670000Y38637858D02*
X61455714Y38566429D01*
X61455714Y38566429D02*
X61098571Y38566429D01*
X62455714Y40066429D02*
X63384286Y40066429D01*
X63384286Y40066429D02*
X62884286Y39495000D01*
X62884286Y39495000D02*
X63098571Y39495000D01*
X63098571Y39495000D02*
X63241429Y39423572D01*
X63241429Y39423572D02*
X63312857Y39352143D01*
X63312857Y39352143D02*
X63384286Y39209286D01*
X63384286Y39209286D02*
X63384286Y38852143D01*
X63384286Y38852143D02*
X63312857Y38709286D01*
X63312857Y38709286D02*
X63241429Y38637858D01*
X63241429Y38637858D02*
X63098571Y38566429D01*
X63098571Y38566429D02*
X62670000Y38566429D01*
X62670000Y38566429D02*
X62527143Y38637858D01*
X62527143Y38637858D02*
X62455714Y38709286D01*
X59812858Y46615000D02*
X60527144Y46615000D01*
X59670001Y46186429D02*
X60170001Y47686429D01*
X60170001Y47686429D02*
X60670001Y46186429D01*
X61955715Y46186429D02*
X61098572Y46186429D01*
X61527143Y46186429D02*
X61527143Y47686429D01*
X61527143Y47686429D02*
X61384286Y47472143D01*
X61384286Y47472143D02*
X61241429Y47329286D01*
X61241429Y47329286D02*
X61098572Y47257858D01*
X63312857Y47686429D02*
X62598571Y47686429D01*
X62598571Y47686429D02*
X62527143Y46972143D01*
X62527143Y46972143D02*
X62598571Y47043572D01*
X62598571Y47043572D02*
X62741429Y47115000D01*
X62741429Y47115000D02*
X63098571Y47115000D01*
X63098571Y47115000D02*
X63241429Y47043572D01*
X63241429Y47043572D02*
X63312857Y46972143D01*
X63312857Y46972143D02*
X63384286Y46829286D01*
X63384286Y46829286D02*
X63384286Y46472143D01*
X63384286Y46472143D02*
X63312857Y46329286D01*
X63312857Y46329286D02*
X63241429Y46257858D01*
X63241429Y46257858D02*
X63098571Y46186429D01*
X63098571Y46186429D02*
X62741429Y46186429D01*
X62741429Y46186429D02*
X62598571Y46257858D01*
X62598571Y46257858D02*
X62527143Y46329286D01*
D11*
X9560857Y55797715D02*
X8360857Y55797715D01*
X8360857Y55797715D02*
X8360857Y56254858D01*
X8360857Y56254858D02*
X8418000Y56369143D01*
X8418000Y56369143D02*
X8475142Y56426286D01*
X8475142Y56426286D02*
X8589428Y56483429D01*
X8589428Y56483429D02*
X8760857Y56483429D01*
X8760857Y56483429D02*
X8875142Y56426286D01*
X8875142Y56426286D02*
X8932285Y56369143D01*
X8932285Y56369143D02*
X8989428Y56254858D01*
X8989428Y56254858D02*
X8989428Y55797715D01*
X9218000Y56940572D02*
X9218000Y57512000D01*
X9560857Y56826286D02*
X8360857Y57226286D01*
X8360857Y57226286D02*
X9560857Y57626286D01*
X8360857Y58254857D02*
X8360857Y58369143D01*
X8360857Y58369143D02*
X8418000Y58483429D01*
X8418000Y58483429D02*
X8475142Y58540571D01*
X8475142Y58540571D02*
X8589428Y58597714D01*
X8589428Y58597714D02*
X8818000Y58654857D01*
X8818000Y58654857D02*
X9103714Y58654857D01*
X9103714Y58654857D02*
X9332285Y58597714D01*
X9332285Y58597714D02*
X9446571Y58540571D01*
X9446571Y58540571D02*
X9503714Y58483429D01*
X9503714Y58483429D02*
X9560857Y58369143D01*
X9560857Y58369143D02*
X9560857Y58254857D01*
X9560857Y58254857D02*
X9503714Y58140571D01*
X9503714Y58140571D02*
X9446571Y58083429D01*
X9446571Y58083429D02*
X9332285Y58026286D01*
X9332285Y58026286D02*
X9103714Y57969143D01*
X9103714Y57969143D02*
X8818000Y57969143D01*
X8818000Y57969143D02*
X8589428Y58026286D01*
X8589428Y58026286D02*
X8475142Y58083429D01*
X8475142Y58083429D02*
X8418000Y58140571D01*
X8418000Y58140571D02*
X8360857Y58254857D01*
D10*
X29125904Y17375620D02*
X28554476Y17375620D01*
X28840190Y17375620D02*
X28840190Y18375620D01*
X28840190Y18375620D02*
X28744952Y18232762D01*
X28744952Y18232762D02*
X28649714Y18137524D01*
X28649714Y18137524D02*
X28554476Y18089905D01*
X29554476Y17375620D02*
X29554476Y18375620D01*
X29649714Y17756572D02*
X29935428Y17375620D01*
X29935428Y18042286D02*
X29554476Y17661334D01*
D12*
X61098571Y41106429D02*
X61098571Y42606429D01*
X61098571Y42606429D02*
X61455714Y42606429D01*
X61455714Y42606429D02*
X61670000Y42535000D01*
X61670000Y42535000D02*
X61812857Y42392143D01*
X61812857Y42392143D02*
X61884286Y42249286D01*
X61884286Y42249286D02*
X61955714Y41963572D01*
X61955714Y41963572D02*
X61955714Y41749286D01*
X61955714Y41749286D02*
X61884286Y41463572D01*
X61884286Y41463572D02*
X61812857Y41320715D01*
X61812857Y41320715D02*
X61670000Y41177858D01*
X61670000Y41177858D02*
X61455714Y41106429D01*
X61455714Y41106429D02*
X61098571Y41106429D01*
X63241429Y42106429D02*
X63241429Y41106429D01*
X62884286Y42677858D02*
X62527143Y41606429D01*
X62527143Y41606429D02*
X63455714Y41606429D01*
D11*
X5027714Y17419143D02*
X5027714Y18619143D01*
X5027714Y18619143D02*
X5484857Y18619143D01*
X5484857Y18619143D02*
X5599142Y18562000D01*
X5599142Y18562000D02*
X5656285Y18504858D01*
X5656285Y18504858D02*
X5713428Y18390572D01*
X5713428Y18390572D02*
X5713428Y18219143D01*
X5713428Y18219143D02*
X5656285Y18104858D01*
X5656285Y18104858D02*
X5599142Y18047715D01*
X5599142Y18047715D02*
X5484857Y17990572D01*
X5484857Y17990572D02*
X5027714Y17990572D01*
X6227714Y18047715D02*
X6627714Y18047715D01*
X6799142Y17419143D02*
X6227714Y17419143D01*
X6227714Y17419143D02*
X6227714Y18619143D01*
X6227714Y18619143D02*
X6799142Y18619143D01*
X7199142Y18619143D02*
X7999142Y18619143D01*
X7999142Y18619143D02*
X7484856Y17419143D01*
D10*
X48216666Y26702620D02*
X48216666Y25988334D01*
X48216666Y25988334D02*
X48169047Y25845477D01*
X48169047Y25845477D02*
X48073809Y25750239D01*
X48073809Y25750239D02*
X47930952Y25702620D01*
X47930952Y25702620D02*
X47835714Y25702620D01*
X48692857Y25702620D02*
X48692857Y26702620D01*
X48692857Y26702620D02*
X49073809Y26702620D01*
X49073809Y26702620D02*
X49169047Y26655000D01*
X49169047Y26655000D02*
X49216666Y26607381D01*
X49216666Y26607381D02*
X49264285Y26512143D01*
X49264285Y26512143D02*
X49264285Y26369286D01*
X49264285Y26369286D02*
X49216666Y26274048D01*
X49216666Y26274048D02*
X49169047Y26226429D01*
X49169047Y26226429D02*
X49073809Y26178810D01*
X49073809Y26178810D02*
X48692857Y26178810D01*
X49597619Y26702620D02*
X50216666Y26702620D01*
X50216666Y26702620D02*
X49883333Y26321667D01*
X49883333Y26321667D02*
X50026190Y26321667D01*
X50026190Y26321667D02*
X50121428Y26274048D01*
X50121428Y26274048D02*
X50169047Y26226429D01*
X50169047Y26226429D02*
X50216666Y26131191D01*
X50216666Y26131191D02*
X50216666Y25893096D01*
X50216666Y25893096D02*
X50169047Y25797858D01*
X50169047Y25797858D02*
X50121428Y25750239D01*
X50121428Y25750239D02*
X50026190Y25702620D01*
X50026190Y25702620D02*
X49740476Y25702620D01*
X49740476Y25702620D02*
X49645238Y25750239D01*
X49645238Y25750239D02*
X49597619Y25797858D01*
X56375523Y51842620D02*
X56042190Y52318810D01*
X55804095Y51842620D02*
X55804095Y52842620D01*
X55804095Y52842620D02*
X56185047Y52842620D01*
X56185047Y52842620D02*
X56280285Y52795000D01*
X56280285Y52795000D02*
X56327904Y52747381D01*
X56327904Y52747381D02*
X56375523Y52652143D01*
X56375523Y52652143D02*
X56375523Y52509286D01*
X56375523Y52509286D02*
X56327904Y52414048D01*
X56327904Y52414048D02*
X56280285Y52366429D01*
X56280285Y52366429D02*
X56185047Y52318810D01*
X56185047Y52318810D02*
X55804095Y52318810D01*
X56804095Y51842620D02*
X56804095Y52842620D01*
X56804095Y52842620D02*
X57375523Y51842620D01*
X57375523Y51842620D02*
X57375523Y52842620D01*
X58375523Y51842620D02*
X57804095Y51842620D01*
X58089809Y51842620D02*
X58089809Y52842620D01*
X58089809Y52842620D02*
X57994571Y52699762D01*
X57994571Y52699762D02*
X57899333Y52604524D01*
X57899333Y52604524D02*
X57804095Y52556905D01*
X35546666Y4052620D02*
X35546666Y3338334D01*
X35546666Y3338334D02*
X35499047Y3195477D01*
X35499047Y3195477D02*
X35403809Y3100239D01*
X35403809Y3100239D02*
X35260952Y3052620D01*
X35260952Y3052620D02*
X35165714Y3052620D01*
X36022857Y3052620D02*
X36022857Y4052620D01*
X36022857Y4052620D02*
X36403809Y4052620D01*
X36403809Y4052620D02*
X36499047Y4005000D01*
X36499047Y4005000D02*
X36546666Y3957381D01*
X36546666Y3957381D02*
X36594285Y3862143D01*
X36594285Y3862143D02*
X36594285Y3719286D01*
X36594285Y3719286D02*
X36546666Y3624048D01*
X36546666Y3624048D02*
X36499047Y3576429D01*
X36499047Y3576429D02*
X36403809Y3528810D01*
X36403809Y3528810D02*
X36022857Y3528810D01*
X37546666Y3052620D02*
X36975238Y3052620D01*
X37260952Y3052620D02*
X37260952Y4052620D01*
X37260952Y4052620D02*
X37165714Y3909762D01*
X37165714Y3909762D02*
X37070476Y3814524D01*
X37070476Y3814524D02*
X36975238Y3766905D01*
X24808095Y45222620D02*
X24808095Y44413096D01*
X24808095Y44413096D02*
X24855714Y44317858D01*
X24855714Y44317858D02*
X24903333Y44270239D01*
X24903333Y44270239D02*
X24998571Y44222620D01*
X24998571Y44222620D02*
X25189047Y44222620D01*
X25189047Y44222620D02*
X25284285Y44270239D01*
X25284285Y44270239D02*
X25331904Y44317858D01*
X25331904Y44317858D02*
X25379523Y44413096D01*
X25379523Y44413096D02*
X25379523Y45222620D01*
X26379523Y44222620D02*
X25808095Y44222620D01*
X26093809Y44222620D02*
X26093809Y45222620D01*
X26093809Y45222620D02*
X25998571Y45079762D01*
X25998571Y45079762D02*
X25903333Y44984524D01*
X25903333Y44984524D02*
X25808095Y44936905D01*
X2376666Y39102620D02*
X2376666Y38388334D01*
X2376666Y38388334D02*
X2329047Y38245477D01*
X2329047Y38245477D02*
X2233809Y38150239D01*
X2233809Y38150239D02*
X2090952Y38102620D01*
X2090952Y38102620D02*
X1995714Y38102620D01*
X3329047Y39102620D02*
X2852857Y39102620D01*
X2852857Y39102620D02*
X2805238Y38626429D01*
X2805238Y38626429D02*
X2852857Y38674048D01*
X2852857Y38674048D02*
X2948095Y38721667D01*
X2948095Y38721667D02*
X3186190Y38721667D01*
X3186190Y38721667D02*
X3281428Y38674048D01*
X3281428Y38674048D02*
X3329047Y38626429D01*
X3329047Y38626429D02*
X3376666Y38531191D01*
X3376666Y38531191D02*
X3376666Y38293096D01*
X3376666Y38293096D02*
X3329047Y38197858D01*
X3329047Y38197858D02*
X3281428Y38150239D01*
X3281428Y38150239D02*
X3186190Y38102620D01*
X3186190Y38102620D02*
X2948095Y38102620D01*
X2948095Y38102620D02*
X2852857Y38150239D01*
X2852857Y38150239D02*
X2805238Y38197858D01*
X86196666Y60692620D02*
X86196666Y59978334D01*
X86196666Y59978334D02*
X86149047Y59835477D01*
X86149047Y59835477D02*
X86053809Y59740239D01*
X86053809Y59740239D02*
X85910952Y59692620D01*
X85910952Y59692620D02*
X85815714Y59692620D01*
X87196666Y59692620D02*
X86625238Y59692620D01*
X86910952Y59692620D02*
X86910952Y60692620D01*
X86910952Y60692620D02*
X86815714Y60549762D01*
X86815714Y60549762D02*
X86720476Y60454524D01*
X86720476Y60454524D02*
X86625238Y60406905D01*
X5956666Y61757620D02*
X5956666Y61043334D01*
X5956666Y61043334D02*
X5909047Y60900477D01*
X5909047Y60900477D02*
X5813809Y60805239D01*
X5813809Y60805239D02*
X5670952Y60757620D01*
X5670952Y60757620D02*
X5575714Y60757620D01*
X6337619Y61757620D02*
X6956666Y61757620D01*
X6956666Y61757620D02*
X6623333Y61376667D01*
X6623333Y61376667D02*
X6766190Y61376667D01*
X6766190Y61376667D02*
X6861428Y61329048D01*
X6861428Y61329048D02*
X6909047Y61281429D01*
X6909047Y61281429D02*
X6956666Y61186191D01*
X6956666Y61186191D02*
X6956666Y60948096D01*
X6956666Y60948096D02*
X6909047Y60852858D01*
X6909047Y60852858D02*
X6861428Y60805239D01*
X6861428Y60805239D02*
X6766190Y60757620D01*
X6766190Y60757620D02*
X6480476Y60757620D01*
X6480476Y60757620D02*
X6385238Y60805239D01*
X6385238Y60805239D02*
X6337619Y60852858D01*
X28197333Y19933858D02*
X28149714Y19886239D01*
X28149714Y19886239D02*
X28006857Y19838620D01*
X28006857Y19838620D02*
X27911619Y19838620D01*
X27911619Y19838620D02*
X27768762Y19886239D01*
X27768762Y19886239D02*
X27673524Y19981477D01*
X27673524Y19981477D02*
X27625905Y20076715D01*
X27625905Y20076715D02*
X27578286Y20267191D01*
X27578286Y20267191D02*
X27578286Y20410048D01*
X27578286Y20410048D02*
X27625905Y20600524D01*
X27625905Y20600524D02*
X27673524Y20695762D01*
X27673524Y20695762D02*
X27768762Y20791000D01*
X27768762Y20791000D02*
X27911619Y20838620D01*
X27911619Y20838620D02*
X28006857Y20838620D01*
X28006857Y20838620D02*
X28149714Y20791000D01*
X28149714Y20791000D02*
X28197333Y20743381D01*
X28530667Y20838620D02*
X29149714Y20838620D01*
X29149714Y20838620D02*
X28816381Y20457667D01*
X28816381Y20457667D02*
X28959238Y20457667D01*
X28959238Y20457667D02*
X29054476Y20410048D01*
X29054476Y20410048D02*
X29102095Y20362429D01*
X29102095Y20362429D02*
X29149714Y20267191D01*
X29149714Y20267191D02*
X29149714Y20029096D01*
X29149714Y20029096D02*
X29102095Y19933858D01*
X29102095Y19933858D02*
X29054476Y19886239D01*
X29054476Y19886239D02*
X28959238Y19838620D01*
X28959238Y19838620D02*
X28673524Y19838620D01*
X28673524Y19838620D02*
X28578286Y19886239D01*
X28578286Y19886239D02*
X28530667Y19933858D01*
X23244333Y15012620D02*
X22911000Y15488810D01*
X22672905Y15012620D02*
X22672905Y16012620D01*
X22672905Y16012620D02*
X23053857Y16012620D01*
X23053857Y16012620D02*
X23149095Y15965000D01*
X23149095Y15965000D02*
X23196714Y15917381D01*
X23196714Y15917381D02*
X23244333Y15822143D01*
X23244333Y15822143D02*
X23244333Y15679286D01*
X23244333Y15679286D02*
X23196714Y15584048D01*
X23196714Y15584048D02*
X23149095Y15536429D01*
X23149095Y15536429D02*
X23053857Y15488810D01*
X23053857Y15488810D02*
X22672905Y15488810D01*
X23577667Y16012620D02*
X24196714Y16012620D01*
X24196714Y16012620D02*
X23863381Y15631667D01*
X23863381Y15631667D02*
X24006238Y15631667D01*
X24006238Y15631667D02*
X24101476Y15584048D01*
X24101476Y15584048D02*
X24149095Y15536429D01*
X24149095Y15536429D02*
X24196714Y15441191D01*
X24196714Y15441191D02*
X24196714Y15203096D01*
X24196714Y15203096D02*
X24149095Y15107858D01*
X24149095Y15107858D02*
X24101476Y15060239D01*
X24101476Y15060239D02*
X24006238Y15012620D01*
X24006238Y15012620D02*
X23720524Y15012620D01*
X23720524Y15012620D02*
X23625286Y15060239D01*
X23625286Y15060239D02*
X23577667Y15107858D01*
X4813523Y52096620D02*
X4480190Y52572810D01*
X4242095Y52096620D02*
X4242095Y53096620D01*
X4242095Y53096620D02*
X4623047Y53096620D01*
X4623047Y53096620D02*
X4718285Y53049000D01*
X4718285Y53049000D02*
X4765904Y53001381D01*
X4765904Y53001381D02*
X4813523Y52906143D01*
X4813523Y52906143D02*
X4813523Y52763286D01*
X4813523Y52763286D02*
X4765904Y52668048D01*
X4765904Y52668048D02*
X4718285Y52620429D01*
X4718285Y52620429D02*
X4623047Y52572810D01*
X4623047Y52572810D02*
X4242095Y52572810D01*
X5242095Y52096620D02*
X5242095Y53096620D01*
X5242095Y53096620D02*
X5813523Y52096620D01*
X5813523Y52096620D02*
X5813523Y53096620D01*
X6242095Y53001381D02*
X6289714Y53049000D01*
X6289714Y53049000D02*
X6384952Y53096620D01*
X6384952Y53096620D02*
X6623047Y53096620D01*
X6623047Y53096620D02*
X6718285Y53049000D01*
X6718285Y53049000D02*
X6765904Y53001381D01*
X6765904Y53001381D02*
X6813523Y52906143D01*
X6813523Y52906143D02*
X6813523Y52810905D01*
X6813523Y52810905D02*
X6765904Y52668048D01*
X6765904Y52668048D02*
X6194476Y52096620D01*
X6194476Y52096620D02*
X6813523Y52096620D01*
X42863809Y21553810D02*
X42863809Y21077620D01*
X42530476Y22077620D02*
X42863809Y21553810D01*
X42863809Y21553810D02*
X43197142Y22077620D01*
X44054285Y21077620D02*
X43482857Y21077620D01*
X43768571Y21077620D02*
X43768571Y22077620D01*
X43768571Y22077620D02*
X43673333Y21934762D01*
X43673333Y21934762D02*
X43578095Y21839524D01*
X43578095Y21839524D02*
X43482857Y21791905D01*
X82506666Y5112620D02*
X82506666Y4398334D01*
X82506666Y4398334D02*
X82459047Y4255477D01*
X82459047Y4255477D02*
X82363809Y4160239D01*
X82363809Y4160239D02*
X82220952Y4112620D01*
X82220952Y4112620D02*
X82125714Y4112620D01*
X82982857Y4112620D02*
X82982857Y5112620D01*
X82982857Y5112620D02*
X83363809Y5112620D01*
X83363809Y5112620D02*
X83459047Y5065000D01*
X83459047Y5065000D02*
X83506666Y5017381D01*
X83506666Y5017381D02*
X83554285Y4922143D01*
X83554285Y4922143D02*
X83554285Y4779286D01*
X83554285Y4779286D02*
X83506666Y4684048D01*
X83506666Y4684048D02*
X83459047Y4636429D01*
X83459047Y4636429D02*
X83363809Y4588810D01*
X83363809Y4588810D02*
X82982857Y4588810D01*
X83935238Y5017381D02*
X83982857Y5065000D01*
X83982857Y5065000D02*
X84078095Y5112620D01*
X84078095Y5112620D02*
X84316190Y5112620D01*
X84316190Y5112620D02*
X84411428Y5065000D01*
X84411428Y5065000D02*
X84459047Y5017381D01*
X84459047Y5017381D02*
X84506666Y4922143D01*
X84506666Y4922143D02*
X84506666Y4826905D01*
X84506666Y4826905D02*
X84459047Y4684048D01*
X84459047Y4684048D02*
X83887619Y4112620D01*
X83887619Y4112620D02*
X84506666Y4112620D01*
X65876666Y60692620D02*
X65876666Y59978334D01*
X65876666Y59978334D02*
X65829047Y59835477D01*
X65829047Y59835477D02*
X65733809Y59740239D01*
X65733809Y59740239D02*
X65590952Y59692620D01*
X65590952Y59692620D02*
X65495714Y59692620D01*
X66305238Y60597381D02*
X66352857Y60645000D01*
X66352857Y60645000D02*
X66448095Y60692620D01*
X66448095Y60692620D02*
X66686190Y60692620D01*
X66686190Y60692620D02*
X66781428Y60645000D01*
X66781428Y60645000D02*
X66829047Y60597381D01*
X66829047Y60597381D02*
X66876666Y60502143D01*
X66876666Y60502143D02*
X66876666Y60406905D01*
X66876666Y60406905D02*
X66829047Y60264048D01*
X66829047Y60264048D02*
X66257619Y59692620D01*
X66257619Y59692620D02*
X66876666Y59692620D01*
X55946666Y61732620D02*
X55946666Y61018334D01*
X55946666Y61018334D02*
X55899047Y60875477D01*
X55899047Y60875477D02*
X55803809Y60780239D01*
X55803809Y60780239D02*
X55660952Y60732620D01*
X55660952Y60732620D02*
X55565714Y60732620D01*
X56851428Y61399286D02*
X56851428Y60732620D01*
X56613333Y61780239D02*
X56375238Y61065953D01*
X56375238Y61065953D02*
X56994285Y61065953D01*
X45743333Y8249858D02*
X45695714Y8202239D01*
X45695714Y8202239D02*
X45552857Y8154620D01*
X45552857Y8154620D02*
X45457619Y8154620D01*
X45457619Y8154620D02*
X45314762Y8202239D01*
X45314762Y8202239D02*
X45219524Y8297477D01*
X45219524Y8297477D02*
X45171905Y8392715D01*
X45171905Y8392715D02*
X45124286Y8583191D01*
X45124286Y8583191D02*
X45124286Y8726048D01*
X45124286Y8726048D02*
X45171905Y8916524D01*
X45171905Y8916524D02*
X45219524Y9011762D01*
X45219524Y9011762D02*
X45314762Y9107000D01*
X45314762Y9107000D02*
X45457619Y9154620D01*
X45457619Y9154620D02*
X45552857Y9154620D01*
X45552857Y9154620D02*
X45695714Y9107000D01*
X45695714Y9107000D02*
X45743333Y9059381D01*
X46600476Y8821286D02*
X46600476Y8154620D01*
X46362381Y9202239D02*
X46124286Y8487953D01*
X46124286Y8487953D02*
X46743333Y8487953D01*
X73830095Y55636620D02*
X73830095Y54827096D01*
X73830095Y54827096D02*
X73877714Y54731858D01*
X73877714Y54731858D02*
X73925333Y54684239D01*
X73925333Y54684239D02*
X74020571Y54636620D01*
X74020571Y54636620D02*
X74211047Y54636620D01*
X74211047Y54636620D02*
X74306285Y54684239D01*
X74306285Y54684239D02*
X74353904Y54731858D01*
X74353904Y54731858D02*
X74401523Y54827096D01*
X74401523Y54827096D02*
X74401523Y55636620D01*
X74830095Y55541381D02*
X74877714Y55589000D01*
X74877714Y55589000D02*
X74972952Y55636620D01*
X74972952Y55636620D02*
X75211047Y55636620D01*
X75211047Y55636620D02*
X75306285Y55589000D01*
X75306285Y55589000D02*
X75353904Y55541381D01*
X75353904Y55541381D02*
X75401523Y55446143D01*
X75401523Y55446143D02*
X75401523Y55350905D01*
X75401523Y55350905D02*
X75353904Y55208048D01*
X75353904Y55208048D02*
X74782476Y54636620D01*
X74782476Y54636620D02*
X75401523Y54636620D01*
X55883333Y26791858D02*
X55835714Y26744239D01*
X55835714Y26744239D02*
X55692857Y26696620D01*
X55692857Y26696620D02*
X55597619Y26696620D01*
X55597619Y26696620D02*
X55454762Y26744239D01*
X55454762Y26744239D02*
X55359524Y26839477D01*
X55359524Y26839477D02*
X55311905Y26934715D01*
X55311905Y26934715D02*
X55264286Y27125191D01*
X55264286Y27125191D02*
X55264286Y27268048D01*
X55264286Y27268048D02*
X55311905Y27458524D01*
X55311905Y27458524D02*
X55359524Y27553762D01*
X55359524Y27553762D02*
X55454762Y27649000D01*
X55454762Y27649000D02*
X55597619Y27696620D01*
X55597619Y27696620D02*
X55692857Y27696620D01*
X55692857Y27696620D02*
X55835714Y27649000D01*
X55835714Y27649000D02*
X55883333Y27601381D01*
X56740476Y27696620D02*
X56550000Y27696620D01*
X56550000Y27696620D02*
X56454762Y27649000D01*
X56454762Y27649000D02*
X56407143Y27601381D01*
X56407143Y27601381D02*
X56311905Y27458524D01*
X56311905Y27458524D02*
X56264286Y27268048D01*
X56264286Y27268048D02*
X56264286Y26887096D01*
X56264286Y26887096D02*
X56311905Y26791858D01*
X56311905Y26791858D02*
X56359524Y26744239D01*
X56359524Y26744239D02*
X56454762Y26696620D01*
X56454762Y26696620D02*
X56645238Y26696620D01*
X56645238Y26696620D02*
X56740476Y26744239D01*
X56740476Y26744239D02*
X56788095Y26791858D01*
X56788095Y26791858D02*
X56835714Y26887096D01*
X56835714Y26887096D02*
X56835714Y27125191D01*
X56835714Y27125191D02*
X56788095Y27220429D01*
X56788095Y27220429D02*
X56740476Y27268048D01*
X56740476Y27268048D02*
X56645238Y27315667D01*
X56645238Y27315667D02*
X56454762Y27315667D01*
X56454762Y27315667D02*
X56359524Y27268048D01*
X56359524Y27268048D02*
X56311905Y27220429D01*
X56311905Y27220429D02*
X56264286Y27125191D01*
X23244333Y17425620D02*
X22911000Y17901810D01*
X22672905Y17425620D02*
X22672905Y18425620D01*
X22672905Y18425620D02*
X23053857Y18425620D01*
X23053857Y18425620D02*
X23149095Y18378000D01*
X23149095Y18378000D02*
X23196714Y18330381D01*
X23196714Y18330381D02*
X23244333Y18235143D01*
X23244333Y18235143D02*
X23244333Y18092286D01*
X23244333Y18092286D02*
X23196714Y17997048D01*
X23196714Y17997048D02*
X23149095Y17949429D01*
X23149095Y17949429D02*
X23053857Y17901810D01*
X23053857Y17901810D02*
X22672905Y17901810D01*
X23625286Y18330381D02*
X23672905Y18378000D01*
X23672905Y18378000D02*
X23768143Y18425620D01*
X23768143Y18425620D02*
X24006238Y18425620D01*
X24006238Y18425620D02*
X24101476Y18378000D01*
X24101476Y18378000D02*
X24149095Y18330381D01*
X24149095Y18330381D02*
X24196714Y18235143D01*
X24196714Y18235143D02*
X24196714Y18139905D01*
X24196714Y18139905D02*
X24149095Y17997048D01*
X24149095Y17997048D02*
X23577667Y17425620D01*
X23577667Y17425620D02*
X24196714Y17425620D01*
X39373333Y14123620D02*
X39040000Y14599810D01*
X38801905Y14123620D02*
X38801905Y15123620D01*
X38801905Y15123620D02*
X39182857Y15123620D01*
X39182857Y15123620D02*
X39278095Y15076000D01*
X39278095Y15076000D02*
X39325714Y15028381D01*
X39325714Y15028381D02*
X39373333Y14933143D01*
X39373333Y14933143D02*
X39373333Y14790286D01*
X39373333Y14790286D02*
X39325714Y14695048D01*
X39325714Y14695048D02*
X39278095Y14647429D01*
X39278095Y14647429D02*
X39182857Y14599810D01*
X39182857Y14599810D02*
X38801905Y14599810D01*
X40325714Y14123620D02*
X39754286Y14123620D01*
X40040000Y14123620D02*
X40040000Y15123620D01*
X40040000Y15123620D02*
X39944762Y14980762D01*
X39944762Y14980762D02*
X39849524Y14885524D01*
X39849524Y14885524D02*
X39754286Y14837905D01*
X40770333Y8249858D02*
X40722714Y8202239D01*
X40722714Y8202239D02*
X40579857Y8154620D01*
X40579857Y8154620D02*
X40484619Y8154620D01*
X40484619Y8154620D02*
X40341762Y8202239D01*
X40341762Y8202239D02*
X40246524Y8297477D01*
X40246524Y8297477D02*
X40198905Y8392715D01*
X40198905Y8392715D02*
X40151286Y8583191D01*
X40151286Y8583191D02*
X40151286Y8726048D01*
X40151286Y8726048D02*
X40198905Y8916524D01*
X40198905Y8916524D02*
X40246524Y9011762D01*
X40246524Y9011762D02*
X40341762Y9107000D01*
X40341762Y9107000D02*
X40484619Y9154620D01*
X40484619Y9154620D02*
X40579857Y9154620D01*
X40579857Y9154620D02*
X40722714Y9107000D01*
X40722714Y9107000D02*
X40770333Y9059381D01*
X41675095Y9154620D02*
X41198905Y9154620D01*
X41198905Y9154620D02*
X41151286Y8678429D01*
X41151286Y8678429D02*
X41198905Y8726048D01*
X41198905Y8726048D02*
X41294143Y8773667D01*
X41294143Y8773667D02*
X41532238Y8773667D01*
X41532238Y8773667D02*
X41627476Y8726048D01*
X41627476Y8726048D02*
X41675095Y8678429D01*
X41675095Y8678429D02*
X41722714Y8583191D01*
X41722714Y8583191D02*
X41722714Y8345096D01*
X41722714Y8345096D02*
X41675095Y8249858D01*
X41675095Y8249858D02*
X41627476Y8202239D01*
X41627476Y8202239D02*
X41532238Y8154620D01*
X41532238Y8154620D02*
X41294143Y8154620D01*
X41294143Y8154620D02*
X41198905Y8202239D01*
X41198905Y8202239D02*
X41151286Y8249858D01*
X71657380Y55329524D02*
X71181190Y54996191D01*
X71657380Y54758096D02*
X70657380Y54758096D01*
X70657380Y54758096D02*
X70657380Y55139048D01*
X70657380Y55139048D02*
X70705000Y55234286D01*
X70705000Y55234286D02*
X70752619Y55281905D01*
X70752619Y55281905D02*
X70847857Y55329524D01*
X70847857Y55329524D02*
X70990714Y55329524D01*
X70990714Y55329524D02*
X71085952Y55281905D01*
X71085952Y55281905D02*
X71133571Y55234286D01*
X71133571Y55234286D02*
X71181190Y55139048D01*
X71181190Y55139048D02*
X71181190Y54758096D01*
X71657380Y55758096D02*
X70657380Y55758096D01*
X70657380Y55758096D02*
X71657380Y56329524D01*
X71657380Y56329524D02*
X70657380Y56329524D01*
X70657380Y56710477D02*
X70657380Y57329524D01*
X70657380Y57329524D02*
X71038333Y56996191D01*
X71038333Y56996191D02*
X71038333Y57139048D01*
X71038333Y57139048D02*
X71085952Y57234286D01*
X71085952Y57234286D02*
X71133571Y57281905D01*
X71133571Y57281905D02*
X71228809Y57329524D01*
X71228809Y57329524D02*
X71466904Y57329524D01*
X71466904Y57329524D02*
X71562142Y57281905D01*
X71562142Y57281905D02*
X71609761Y57234286D01*
X71609761Y57234286D02*
X71657380Y57139048D01*
X71657380Y57139048D02*
X71657380Y56853334D01*
X71657380Y56853334D02*
X71609761Y56758096D01*
X71609761Y56758096D02*
X71562142Y56710477D01*
X34313333Y46349858D02*
X34265714Y46302239D01*
X34265714Y46302239D02*
X34122857Y46254620D01*
X34122857Y46254620D02*
X34027619Y46254620D01*
X34027619Y46254620D02*
X33884762Y46302239D01*
X33884762Y46302239D02*
X33789524Y46397477D01*
X33789524Y46397477D02*
X33741905Y46492715D01*
X33741905Y46492715D02*
X33694286Y46683191D01*
X33694286Y46683191D02*
X33694286Y46826048D01*
X33694286Y46826048D02*
X33741905Y47016524D01*
X33741905Y47016524D02*
X33789524Y47111762D01*
X33789524Y47111762D02*
X33884762Y47207000D01*
X33884762Y47207000D02*
X34027619Y47254620D01*
X34027619Y47254620D02*
X34122857Y47254620D01*
X34122857Y47254620D02*
X34265714Y47207000D01*
X34265714Y47207000D02*
X34313333Y47159381D01*
X35265714Y46254620D02*
X34694286Y46254620D01*
X34980000Y46254620D02*
X34980000Y47254620D01*
X34980000Y47254620D02*
X34884762Y47111762D01*
X34884762Y47111762D02*
X34789524Y47016524D01*
X34789524Y47016524D02*
X34694286Y46968905D01*
D14*
X47650000Y23970000D02*
X47650000Y24570000D01*
X48350000Y25270000D02*
X49750000Y25270000D01*
X49750000Y23270000D02*
X48350000Y23270000D01*
X50450000Y24570000D02*
X50450000Y23970000D01*
X48350000Y25270000D02*
G75*
G03*
X47650000Y24570000I-1J-699999D01*
G01*
X47650000Y23970000D02*
G75*
G03*
X48350000Y23270000I699999J-1D01*
G01*
X50450000Y24570000D02*
G75*
G03*
X49750000Y25270000I-700000J0D01*
G01*
X49750000Y23270000D02*
G75*
G03*
X50450000Y23970000I0J700000D01*
G01*
X54950000Y51064000D02*
X54950000Y53864000D01*
X54950000Y53864000D02*
X31750000Y53864000D01*
X52240000Y51064000D02*
X52240000Y53864000D01*
X31750000Y51064000D02*
X54950000Y51064000D01*
X31750000Y53864000D02*
X31750000Y51064000D01*
X37780000Y5520000D02*
X37780000Y4920000D01*
X37080000Y4220000D02*
X35680000Y4220000D01*
X35680000Y6220000D02*
X37080000Y6220000D01*
X34980000Y4920000D02*
X34980000Y5520000D01*
X37080000Y4220000D02*
G75*
G03*
X37780000Y4920000I1J699999D01*
G01*
X37780000Y5520000D02*
G75*
G03*
X37080000Y6220000I-699999J1D01*
G01*
X34980000Y4920000D02*
G75*
G03*
X35680000Y4220000I700000J0D01*
G01*
X35680000Y6220000D02*
G75*
G03*
X34980000Y5520000I0J-700000D01*
G01*
D15*
X44705000Y24065000D02*
X44705000Y24565000D01*
X44705000Y43405000D02*
X44705000Y41755000D01*
X43555000Y22915000D02*
X44705000Y24065000D01*
X43055000Y22915000D02*
X43555000Y22915000D01*
X43055000Y43405000D02*
X44705000Y43405000D01*
X25865000Y22915000D02*
X24215000Y22915000D01*
X25865000Y43405000D02*
X24215000Y43405000D01*
X24215000Y22915000D02*
X24215000Y24565000D01*
X24215000Y43405000D02*
X24215000Y41755000D01*
D14*
X1380000Y34430000D02*
X1380000Y16590000D01*
X1380000Y34430000D02*
X4040000Y34430000D01*
X1380000Y16590000D02*
X4040000Y16590000D01*
X2710000Y37030000D02*
X4040000Y37030000D01*
X4040000Y37030000D02*
X4040000Y35700000D01*
X4040000Y34430000D02*
X4040000Y16590000D01*
X85200000Y56020000D02*
X85200000Y7700000D01*
X85200000Y56020000D02*
X87860000Y56020000D01*
X85200000Y7700000D02*
X87860000Y7700000D01*
X86530000Y58620000D02*
X87860000Y58620000D01*
X87860000Y58620000D02*
X87860000Y57290000D01*
X87860000Y56020000D02*
X87860000Y7700000D01*
X10330000Y59795000D02*
X28170000Y59795000D01*
X10330000Y59795000D02*
X10330000Y62455000D01*
X28170000Y59795000D02*
X28170000Y62455000D01*
X7730000Y61125000D02*
X7730000Y62455000D01*
X7730000Y62455000D02*
X9060000Y62455000D01*
X10330000Y62455000D02*
X28170000Y62455000D01*
X31311000Y21380000D02*
X32569000Y21380000D01*
X31311000Y19540000D02*
X32569000Y19540000D01*
X26510000Y15380000D02*
X27460000Y15380000D01*
X27460000Y16300000D02*
X27460000Y14460000D01*
X27460000Y14460000D02*
X31300000Y14460000D01*
X31300000Y16300000D02*
X27460000Y16300000D01*
X31300000Y14460000D02*
X31300000Y16300000D01*
X32250000Y15380000D02*
X31300000Y15380000D01*
X30820000Y51064000D02*
X30820000Y53864000D01*
X30820000Y53864000D02*
X7620000Y53864000D01*
X28110000Y51064000D02*
X28110000Y53864000D01*
X7620000Y51064000D02*
X30820000Y51064000D01*
X7620000Y53864000D02*
X7620000Y51064000D01*
X40215000Y20445000D02*
X46465000Y20445000D01*
X40215000Y15395000D02*
X46465000Y15395000D01*
X40215000Y20445000D02*
G75*
G03*
X40215000Y15395000I0J-2525000D01*
G01*
X46465000Y15395000D02*
G75*
G03*
X46465000Y20445000I0J2525000D01*
G01*
X81940000Y2380000D02*
X81940000Y2980000D01*
X82640000Y3680000D02*
X84040000Y3680000D01*
X84040000Y1680000D02*
X82640000Y1680000D01*
X84740000Y2980000D02*
X84740000Y2380000D01*
X82640000Y3680000D02*
G75*
G03*
X81940000Y2980000I-1J-699999D01*
G01*
X81940000Y2380000D02*
G75*
G03*
X82640000Y1680000I699999J-1D01*
G01*
X84740000Y2980000D02*
G75*
G03*
X84040000Y3680000I-700000J0D01*
G01*
X84040000Y1680000D02*
G75*
G03*
X84740000Y2380000I0J700000D01*
G01*
X64880000Y56020000D02*
X64880000Y7700000D01*
X64880000Y56020000D02*
X67540000Y56020000D01*
X64880000Y7700000D02*
X67540000Y7700000D01*
X66210000Y58620000D02*
X67540000Y58620000D01*
X67540000Y58620000D02*
X67540000Y57290000D01*
X67540000Y56020000D02*
X67540000Y7700000D01*
X52240000Y62430000D02*
X34400000Y62430000D01*
X52240000Y62430000D02*
X52240000Y59770000D01*
X34400000Y62430000D02*
X34400000Y59770000D01*
X54840000Y61100000D02*
X54840000Y59770000D01*
X54840000Y59770000D02*
X53510000Y59770000D01*
X52240000Y59770000D02*
X34400000Y59770000D01*
X46539000Y9380000D02*
X45281000Y9380000D01*
X46539000Y11220000D02*
X45281000Y11220000D01*
X76260000Y53535000D02*
X76260000Y28015000D01*
X76260000Y28015000D02*
X81560000Y28015000D01*
X77910000Y53535000D02*
X76260000Y53535000D01*
X81560000Y53535000D02*
X79910000Y53535000D01*
X81560000Y28015000D02*
X81560000Y53535000D01*
X77910000Y53535000D02*
G75*
G03*
X79910000Y53535000I1000000J0D01*
G01*
X79519000Y55100000D02*
X78261000Y55100000D01*
X79519000Y56940000D02*
X78261000Y56940000D01*
X57245000Y32619801D02*
X57245000Y32219801D01*
X57445000Y32419801D02*
X57045000Y32419801D01*
X58130000Y30350000D02*
X53970000Y30350000D01*
X58130000Y30310000D02*
X53970000Y30310000D01*
X58129000Y30270000D02*
X53971000Y30270000D01*
X58127000Y30230000D02*
X53973000Y30230000D01*
X58124000Y30190000D02*
X53976000Y30190000D01*
X58121000Y30150000D02*
X56890000Y30150000D01*
X55210000Y30150000D02*
X53979000Y30150000D01*
X58117000Y30110000D02*
X56890000Y30110000D01*
X55210000Y30110000D02*
X53983000Y30110000D01*
X58112000Y30070000D02*
X56890000Y30070000D01*
X55210000Y30070000D02*
X53988000Y30070000D01*
X58106000Y30030000D02*
X56890000Y30030000D01*
X55210000Y30030000D02*
X53994000Y30030000D01*
X58100000Y29990000D02*
X56890000Y29990000D01*
X55210000Y29990000D02*
X54000000Y29990000D01*
X58092000Y29950000D02*
X56890000Y29950000D01*
X55210000Y29950000D02*
X54008000Y29950000D01*
X58084000Y29910000D02*
X56890000Y29910000D01*
X55210000Y29910000D02*
X54016000Y29910000D01*
X58075000Y29870000D02*
X56890000Y29870000D01*
X55210000Y29870000D02*
X54025000Y29870000D01*
X58066000Y29830000D02*
X56890000Y29830000D01*
X55210000Y29830000D02*
X54034000Y29830000D01*
X58055000Y29790000D02*
X56890000Y29790000D01*
X55210000Y29790000D02*
X54045000Y29790000D01*
X58044000Y29750000D02*
X56890000Y29750000D01*
X55210000Y29750000D02*
X54056000Y29750000D01*
X58032000Y29710000D02*
X56890000Y29710000D01*
X55210000Y29710000D02*
X54068000Y29710000D01*
X58018000Y29670000D02*
X56890000Y29670000D01*
X55210000Y29670000D02*
X54082000Y29670000D01*
X58004000Y29629000D02*
X56890000Y29629000D01*
X55210000Y29629000D02*
X54096000Y29629000D01*
X57990000Y29589000D02*
X56890000Y29589000D01*
X55210000Y29589000D02*
X54110000Y29589000D01*
X57974000Y29549000D02*
X56890000Y29549000D01*
X55210000Y29549000D02*
X54126000Y29549000D01*
X57957000Y29509000D02*
X56890000Y29509000D01*
X55210000Y29509000D02*
X54143000Y29509000D01*
X57939000Y29469000D02*
X56890000Y29469000D01*
X55210000Y29469000D02*
X54161000Y29469000D01*
X57920000Y29429000D02*
X56890000Y29429000D01*
X55210000Y29429000D02*
X54180000Y29429000D01*
X57901000Y29389000D02*
X56890000Y29389000D01*
X55210000Y29389000D02*
X54199000Y29389000D01*
X57880000Y29349000D02*
X56890000Y29349000D01*
X55210000Y29349000D02*
X54220000Y29349000D01*
X57858000Y29309000D02*
X56890000Y29309000D01*
X55210000Y29309000D02*
X54242000Y29309000D01*
X57835000Y29269000D02*
X56890000Y29269000D01*
X55210000Y29269000D02*
X54265000Y29269000D01*
X57810000Y29229000D02*
X56890000Y29229000D01*
X55210000Y29229000D02*
X54290000Y29229000D01*
X57785000Y29189000D02*
X56890000Y29189000D01*
X55210000Y29189000D02*
X54315000Y29189000D01*
X57758000Y29149000D02*
X56890000Y29149000D01*
X55210000Y29149000D02*
X54342000Y29149000D01*
X57730000Y29109000D02*
X56890000Y29109000D01*
X55210000Y29109000D02*
X54370000Y29109000D01*
X57700000Y29069000D02*
X56890000Y29069000D01*
X55210000Y29069000D02*
X54400000Y29069000D01*
X57669000Y29029000D02*
X56890000Y29029000D01*
X55210000Y29029000D02*
X54431000Y29029000D01*
X57637000Y28989000D02*
X56890000Y28989000D01*
X55210000Y28989000D02*
X54463000Y28989000D01*
X57602000Y28949000D02*
X56890000Y28949000D01*
X55210000Y28949000D02*
X54498000Y28949000D01*
X57566000Y28909000D02*
X56890000Y28909000D01*
X55210000Y28909000D02*
X54534000Y28909000D01*
X57528000Y28869000D02*
X56890000Y28869000D01*
X55210000Y28869000D02*
X54572000Y28869000D01*
X57488000Y28829000D02*
X56890000Y28829000D01*
X55210000Y28829000D02*
X54612000Y28829000D01*
X57446000Y28789000D02*
X56890000Y28789000D01*
X55210000Y28789000D02*
X54654000Y28789000D01*
X57401000Y28749000D02*
X56890000Y28749000D01*
X55210000Y28749000D02*
X54699000Y28749000D01*
X57354000Y28709000D02*
X56890000Y28709000D01*
X55210000Y28709000D02*
X54746000Y28709000D01*
X57304000Y28669000D02*
X56890000Y28669000D01*
X55210000Y28669000D02*
X54796000Y28669000D01*
X57250000Y28629000D02*
X56890000Y28629000D01*
X55210000Y28629000D02*
X54850000Y28629000D01*
X57192000Y28589000D02*
X56890000Y28589000D01*
X55210000Y28589000D02*
X54908000Y28589000D01*
X57130000Y28549000D02*
X56890000Y28549000D01*
X55210000Y28549000D02*
X54970000Y28549000D01*
X57063000Y28509000D02*
X55037000Y28509000D01*
X56990000Y28469000D02*
X55110000Y28469000D01*
X56909000Y28429000D02*
X55191000Y28429000D01*
X56818000Y28389000D02*
X55282000Y28389000D01*
X56714000Y28349000D02*
X55386000Y28349000D01*
X56587000Y28309000D02*
X55513000Y28309000D01*
X56420000Y28269000D02*
X55680000Y28269000D01*
X58170000Y30350000D02*
G75*
G03*
X58170000Y30350000I-2120000J0D01*
G01*
X32250000Y17920000D02*
X31300000Y17920000D01*
X31300000Y17000000D02*
X31300000Y18840000D01*
X31300000Y18840000D02*
X27460000Y18840000D01*
X27460000Y17000000D02*
X31300000Y17000000D01*
X27460000Y18840000D02*
X27460000Y17000000D01*
X26510000Y17920000D02*
X27460000Y17920000D01*
X46220000Y12840000D02*
X45270000Y12840000D01*
X45270000Y11920000D02*
X45270000Y13760000D01*
X45270000Y13760000D02*
X41430000Y13760000D01*
X41430000Y11920000D02*
X45270000Y11920000D01*
X41430000Y13760000D02*
X41430000Y11920000D01*
X40480000Y12840000D02*
X41430000Y12840000D01*
X40161000Y11220000D02*
X41419000Y11220000D01*
X40161000Y9380000D02*
X41419000Y9380000D01*
X72690000Y53650000D02*
X69890000Y53650000D01*
X69890000Y53650000D02*
X69890000Y30450000D01*
X72690000Y50940000D02*
X69890000Y50940000D01*
X72690000Y30450000D02*
X72690000Y53650000D01*
X69890000Y30450000D02*
X72690000Y30450000D01*
X35109000Y43924000D02*
X33851000Y43924000D01*
X35109000Y45764000D02*
X33851000Y45764000D01*
M02*
