M48
; DRILL file {KiCad (7.0.0)} date Sat Sep  9 07:46:48 2023
; FORMAT={-:-/ absolute / metric / decimal}
; #@! TF.CreationDate,2023-09-09T07:46:48+09:00
; #@! TF.GenerationSoftware,Kicad,Pcbnew,(7.0.0)
; #@! TF.FileFunction,MixedPlating,1,2
FMAT,2
METRIC
; #@! TA.AperFunction,Plated,PTH,ViaDrill
T1C0.300
; #@! TA.AperFunction,Plated,PTH,ComponentDrill
T2C0.600
; #@! TA.AperFunction,Plated,PTH,ComponentDrill
T3C0.700
; #@! TA.AperFunction,Plated,PTH,ComponentDrill
T4C0.800
; #@! TA.AperFunction,Plated,PTH,ViaDrill
T5C0.900
; #@! TA.AperFunction,Plated,PTH,ComponentDrill
T6C1.000
; #@! TA.AperFunction,NonPlated,NPTH,ComponentDrill
T7C3.500
%
G90
G05
T1
X12.616Y28.08
X12.616Y22.077
X13.378Y28.842
X13.378Y24.027
X14.394Y28.842
X14.394Y26.81
X24.3Y47.13
X26.834Y47.13
X27.381Y32.28
X27.442Y38.244
X28.028Y35.517
X29.259Y35.94
X30.169Y36.036
X30.567Y33.484
X31.412Y46.368
X32.876Y30.76
X33.23Y49.416
X33.311Y35.11
X35.73Y22.492
X36.365Y16.65
X36.838Y9.873
X37.0Y15.38
X38.27Y26.048
X39.61Y22.559
X41.36Y21.983
X41.71Y39.198
X42.08Y25.794
X43.604Y24.016
X45.073Y38.704
X46.398Y40.018
X46.906Y24.016
X48.176Y26.81
X55.155Y33.791
X76.624Y18.936
X77.386Y21.73
X80.18Y4.331
X80.18Y2.68
T2
X56.05Y31.35
X56.05Y29.35
T3
X25.57Y17.92
X25.57Y15.38
X33.19Y17.92
X33.19Y15.38
X39.54Y12.84
X47.16Y12.84
T4
X9.06Y52.464
X11.6Y52.464
X14.14Y52.464
X16.68Y52.464
X19.22Y52.464
X21.76Y52.464
X24.3Y52.464
X26.84Y52.464
X29.38Y52.464
X30.69Y20.46
X33.19Y52.464
X33.19Y20.46
X33.23Y44.844
X35.73Y52.464
X35.73Y44.844
X38.27Y52.464
X39.54Y10.3
X40.81Y52.464
X40.9Y17.92
X42.04Y10.3
X43.35Y52.464
X44.66Y10.3
X45.78Y17.92
X45.89Y52.464
X47.16Y10.3
X48.43Y52.464
X50.97Y52.464
X53.51Y52.464
X71.29Y52.21
X71.29Y49.67
X71.29Y47.13
X71.29Y44.59
X71.29Y42.05
X71.29Y39.51
X71.29Y36.97
X71.29Y34.43
X71.29Y31.89
X75.1Y52.205
X75.1Y49.665
X75.1Y47.125
X75.1Y44.585
X75.1Y42.045
X75.1Y39.505
X75.1Y36.965
X75.1Y34.425
X75.1Y31.885
X75.1Y29.345
X77.64Y56.02
X80.14Y56.02
X82.72Y52.205
X82.72Y49.665
X82.72Y47.125
X82.72Y44.585
X82.72Y42.045
X82.72Y39.505
X82.72Y36.965
X82.72Y34.425
X82.72Y31.885
X82.72Y29.345
T5
X33.19Y7.76
X34.46Y39.002
X34.46Y29.35
X35.984Y31.89
X56.05Y5.22
X57.828Y6.744
X75.1Y26.81
X75.1Y5.22
X78.402Y26.81
X80.434Y6.49
T6
X2.71Y35.7
X2.71Y33.16
X2.71Y30.62
X2.71Y28.08
X2.71Y25.54
X2.71Y23.0
X2.71Y20.46
X2.71Y17.92
X9.06Y61.125
X11.6Y61.125
X14.14Y61.125
X16.68Y61.125
X19.22Y61.125
X21.76Y61.125
X24.3Y61.125
X26.84Y61.125
X35.73Y61.1
X38.27Y61.1
X40.81Y61.1
X43.35Y61.1
X45.89Y61.1
X48.43Y61.1
X50.97Y61.1
X53.51Y61.1
X66.21Y57.29
X66.21Y54.75
X66.21Y52.21
X66.21Y49.67
X66.21Y47.13
X66.21Y44.59
X66.21Y42.05
X66.21Y39.51
X66.21Y36.97
X66.21Y34.43
X66.21Y31.89
X66.21Y29.35
X66.21Y26.81
X66.21Y24.27
X66.21Y21.73
X66.21Y19.19
X66.21Y16.65
X66.21Y14.11
X66.21Y11.57
X66.21Y9.03
X86.53Y57.29
X86.53Y54.75
X86.53Y52.21
X86.53Y49.67
X86.53Y47.13
X86.53Y44.59
X86.53Y42.05
X86.53Y39.51
X86.53Y36.97
X86.53Y34.43
X86.53Y31.89
X86.53Y29.35
X86.53Y26.81
X86.53Y24.27
X86.53Y21.73
X86.53Y19.19
X86.53Y16.65
X86.53Y14.11
X86.53Y11.57
X86.53Y9.03
T7
X5.08Y3.835
X93.98Y3.81
T0
M30
